<?xml version="1.0" encoding="utf-8"?>
<!-- Generator: Adobe Illustrator 28.0.0, SVG Export Plug-In . SVG Version: 6.00 Build 0)  -->
<svg version="1.1" id="Layer_1" xmlns="http://www.w3.org/2000/svg" xmlns:xlink="http://www.w3.org/1999/xlink" x="0px" y="0px"
	 viewBox="0 0 1366 768" style="enable-background:new 0 0 1366 768;" xml:space="preserve">
<style type="text/css">
	.st0{fill:#FFFFFF;}
</style>
<path d="M1250.8,606.6H115.2c-63.5,0-114.9-51.4-114.9-114.9V276.3c0-63.5,51.4-114.9,114.9-114.9h1135.7
	c63.5,0,114.9,51.4,114.9,114.9v215.5C1365.7,555.2,1314.3,606.6,1250.8,606.6z"/>
<polyline points="188.6,219 341.4,66.3 494.1,219 "/>
<g>
	<g>
		<path class="st0" d="M338.5,333.3c0-1.9,0-3.7,0-5.5c0-1.8,0-3.4,0-5s0-3.4,0-5.6c0-2.2,0-4.5,0-7c0-2.5,0-5.1,0-7.7
			c0-2.6,0-5.2,0-7.7c0-2.5,0-4.8,0-6.9c0-2.4,0-4.7,0-6.8c0-2.1,0-4.2,0-6.1s0-3.9,0-6c0-2,0-4.2,0-6.6c0-1.8,0.3-3.4,0.8-4.6
			c0.5-1.3,1.2-2.2,2.1-2.8c0.9-0.6,2-0.8,3.1-0.7c1.2,0.1,2.4,0.6,3.7,1.5c1.3,0.9,2.6,2.2,3.8,3.9c1.3,1.7,2.5,3.4,3.7,5
			c1.2,1.6,2.3,3.2,3.4,4.7c1.1,1.6,2.1,3.1,3.2,4.6c1,1.5,2.1,2.9,3.1,4.4c1.6,2.3,3.4,4.9,5.6,7.9c2.2,3,4.4,6.1,6.8,9.4
			c2.4,3.3,4.7,6.5,7,9.8c2.3,3.2,4.3,6.2,6.1,8.8c1.7,2.5,3.5,4.9,5.4,7c1.9,2.2,3.6,4.2,5.3,6.1c1.6,1.9,3,3.7,4,5.5
			c1,1.7,1.6,3.4,1.6,5.1c0,1.7-0.3,3.1-0.8,4.2c-0.6,1.1-1.3,1.9-2.2,2.3c-0.9,0.5-2,0.6-3.1,0.4c-1.2-0.2-2.4-0.8-3.7-1.8
			s-2.6-2.3-3.8-3.9c-1.3-1.7-1.9-3.3-1.9-4.6c0-1.3,0.4-2.7,1-4.1c0.6-1.4,1.2-3.1,1.9-5s1-4.4,1-7.4c0-2.3,0-4.9,0-7.8
			c0-2.9,0-6,0-9.2c0-3.2,0-6.3,0-9.3c0-3,0-5.8,0-8.3s0-4.4,0-5.8c0-1.9,0-3.8,0-5.7c0-1.9,0-3.8,0-5.7c0-1.9,0-3.8,0-5.7
			c0-2.3,0.6-3.9,1.8-5c1.2-1.1,2.5-1.6,4.1-1.6s2.9,0.5,4.1,1.6c1.2,1.1,1.8,2.8,1.8,5c0,1.9,0,3.8,0,5.5c0,1.8,0,3.6,0,5.6
			c0,2,0,4.2,0,6.8c0,2.6,0,5.7,0,9.4c0,3.7,0,7.5,0,11.4c0,3.9,0,7.7,0,11.2c0,3.5,0,6.4,0,8.7c0,1.2,0,2.4,0,3.6
			c0,1.2,0,2.4,0,3.6c0,1.2,0,2.4,0,3.6c0,1.2,0,2.5,0,3.7c0,1.3,0,2.5,0,3.8c0,1.7-0.3,3.1-0.8,4.2c-0.6,1.1-1.3,1.9-2.2,2.3
			c-0.9,0.5-2,0.6-3.1,0.4c-1.2-0.2-2.4-0.8-3.7-1.8s-2.6-2.3-3.8-3.9c-1-1.4-2-2.6-2.7-3.8c-0.8-1.1-1.5-2.2-2.2-3.2
			c-0.7-1-1.4-2-2-2.9c-0.7-1-1.3-2-2-3c-0.7-1-1.5-2.2-2.3-3.5c-1.4-2-2.9-4.2-4.4-6.5c-1.6-2.3-3.2-4.7-4.9-7.2
			c-1.7-2.4-3.4-4.8-5.1-7.2c-1.7-2.4-3.3-4.7-4.9-6.9c-1.6-2.2-3-4.3-4.3-6.2c-1-1.4-1.8-2.6-2.5-3.6c-0.7-1-1.4-2-1.9-2.7
			c-0.5-0.8-1-1.5-1.4-2c-0.4-0.6-0.8-1.1-1.1-1.6c-0.3-0.4-0.6-0.8-0.8-1c-0.2-0.3-0.3-0.4-0.5-0.5c-0.1-0.1-0.2,0-0.2,0.1
			c0,0.2,0,0.4,0,0.8c0,0.3,0,0.8,0,1.4c0,0.6,0,1.2,0,1.9c0,0.7,0,1.3,0,2.1c0,0.7,0,1.5,0,2.3c0,0.8,0,1.8,0,2.8s0,2.2,0,3.5
			c0,2.5,0,5,0,7.4c0,2.4,0,4.8,0,7.2c0,2.4,0,4.9,0,7.5s0,5.4,0,8.3c0,1.9,0,3.7,0,5.5c0,1.7,0,3.4,0,5.1c0,1.7,0,3.5,0,5.5
			c0,2.2-0.6,3.8-1.8,4.9s-2.5,1.6-4.1,1.6s-2.9-0.5-4.1-1.6c-1.2-1.1-1.8-2.7-1.8-4.9C338.5,337,338.5,335.1,338.5,333.3z"/>
		<path class="st0" d="M447.7,305.9c2.9,0,5.8,0,8.8,0c3,0,5.9,0,8.8,0c1,0,2,0,2.8,0.1c0.8,0,1.5,0,2-0.1c0.5-0.1,0.8-0.4,1-0.7
			c0.2-0.3,0.2-1,0.1-1.8c-0.6-2.8-1.7-5.2-3.2-7.2c-1.5-2-3.4-3.6-5.8-4.7c-2.3-1.1-5-1.6-7.9-1.6c-3.9,0-7.4,0.9-10.3,2.7
			c-3,1.8-5.3,4.4-7,7.7c-1.7,3.3-2.5,7.2-2.5,11.6c0,4.7,0.9,8.7,2.7,12c1.8,3.3,4.3,5.8,7.5,7.5c3.2,1.7,6.8,2.5,10.9,2.5
			c1.8,0,3.7-0.2,5.7-0.6c2-0.4,4-1,6-1.8c2-0.8,4.1-1.7,6.2-2.9c1.9-1.1,3.6-1.4,5.1-0.9c1.5,0.5,2.7,1.5,3.4,2.8
			c0.8,1.3,1,2.8,0.6,4.4c-0.4,1.6-1.5,2.9-3.4,3.9c-2.7,1.6-5.4,2.8-8.1,3.8c-2.7,1-5.4,1.7-8,2.2c-2.6,0.5-5.2,0.7-7.6,0.7
			c-6.1,0-11.6-1.3-16.5-4c-4.9-2.7-8.9-6.5-11.8-11.6c-2.9-5-4.4-11.1-4.4-18.1c0-6.8,1.4-12.7,4.2-17.8c2.8-5.1,6.5-9,11.3-11.8
			c4.8-2.8,10.1-4.2,16.1-4.2c4.8,0,9.1,1,13.1,2.9c4,1.9,7.3,4.6,10,8c2.6,3.4,4.4,7.5,5.3,12.3c0.5,2.7,0.6,5.1,0.3,7.2
			c-0.3,2.1-1.2,3.8-2.6,5.1c-1.4,1.3-3.3,2.4-5.8,3.1c-2.5,0.7-5.5,1-9.2,1c-2.8,0-5.3,0-7.7,0c-2.3,0-4.5,0-6.6,0c-2,0-4,0-5.9,0
			c-1.9,0-3.7,0-5.5,0c-2.2,0-3.8-0.6-4.9-1.8c-1.1-1.2-1.7-2.5-1.7-4.1s0.6-2.9,1.7-4.1c1.1-1.2,2.8-1.8,4.9-1.8
			C442.2,305.9,444.9,305.9,447.7,305.9z M442.3,255.5c1.5-1.5,2.9-2.8,4.1-4c1.2-1.1,2.5-2,3.8-2.7s2.9-1,4.7-1
			c1.9,0,3.5,0.3,4.9,1c1.3,0.7,2.6,1.5,3.8,2.7c1.2,1.1,2.6,2.5,4,4c1.5,1.5,3.3,3.1,5.5,4.9c1.7,1.3,2.6,2.8,2.7,4.4
			c0.1,1.6-0.4,3-1.4,4.3c-1,1.3-2.3,2-3.8,2.2c-1.6,0.2-3.2-0.4-4.8-1.8c-2.1-1.8-3.9-3.5-5.4-4.9c-1.5-1.5-2.7-2.7-3.6-3.6
			s-1.5-1.4-1.9-1.4c-0.3-0.1-1,0.3-1.9,1.2c-0.9,0.9-2.1,2.1-3.6,3.6c-1.5,1.5-3.3,3.2-5.5,5.1c-1.6,1.5-3.3,2.1-4.9,1.9
			c-1.6-0.2-2.9-1-3.8-2.2c-1-1.3-1.4-2.7-1.3-4.4c0.1-1.6,1-3.1,2.7-4.4C438.9,258.6,440.8,257,442.3,255.5z M482.1,237.1
			c-1.1,1-2.2,1.9-3.3,2.8c-1.1,0.9-2.2,1.8-3.3,2.8c-1.1,1-2.3,1.9-3.4,2.9c-1.6,1.4-3.3,2-4.9,1.8c-1.6-0.2-2.9-0.8-3.9-2
			c-1-1.1-1.5-2.5-1.4-4.2c0.1-1.6,1-3.2,2.6-4.6c1-1,2.1-1.9,3.2-2.8c1.1-0.9,2.2-1.8,3.3-2.7c1.1-0.9,2.2-1.8,3.3-2.8
			c1.1-1,2.3-1.9,3.4-2.9c1.6-1.5,3.3-2.1,4.9-1.9c1.6,0.2,2.9,0.9,3.9,2c1,1.1,1.5,2.5,1.4,4.1c0,1.6-0.9,3.1-2.7,4.6
			C484.3,235.2,483.2,236.1,482.1,237.1z"/>
		<path class="st0" d="M508,294.4c0,3.6,0,7.2,0,11.1c0,3.8,0,7.7,0,11.7c0,3.6,0.5,6.7,1.6,9.2c1.1,2.5,2.7,4.3,4.9,5.6
			c2.2,1.3,4.8,1.9,7.9,1.9c2.9,0,5.5-0.5,8-1.5c2.5-1,4.6-2.4,6.4-4.1c1.8-1.7,3.2-3.7,4.2-6c1-2.3,1.5-4.7,1.5-7.3
			c0-1,0-2.8,0-5.2c0-2.4,0-5.2,0-8.2c0-3,0-6.1,0-9.1c0-3,0-5.7,0-7.9c0-1.7,0.4-3.1,1.2-4.2c0.8-1,1.8-1.7,2.9-2.1
			c1.2-0.3,2.3-0.3,3.5,0c1.2,0.3,2.1,1,2.9,2.1c0.8,1,1.2,2.4,1.2,4.2c0,2.3,0,5.3,0,8.9c0,3.6,0,7.4,0,11.4c0,4,0,7.7,0,11.2
			c0,3.5,0,6.2,0,8.2c0,2.1,0,3.9,0,5.5s0,3.1,0,4.5c0,1.4,0,3.1,0,5c0,2.2-0.6,3.8-1.8,4.9s-2.5,1.6-4.1,1.6s-2.9-0.5-4.1-1.6
			c-1.2-1.1-1.8-2.7-1.8-4.9c0-2,0-3.9,0-5.6c0-1.7,0-3.4,0-4.9s0-3,0-4.4c0-2.9,0-6.2,0-9.8c0-3.6,0-7.3,0-11c0-3.7,0-7.2,0-10.5
			c0-3.3,0-6.1,0-8.3c0-1.7,0.4-3.1,1.2-4.2c0.8-1,1.8-1.7,2.9-2.1c1.2-0.3,2.3-0.3,3.5,0c1.2,0.3,2.1,1,2.9,2.1
			c0.8,1,1.2,2.4,1.2,4.2c0,2.3,0,4.9,0,7.8c0,2.9,0,5.7,0,8.6s0,5.5,0,8s0,4.5,0,6c0,4.1-0.8,8-2.4,11.6c-1.6,3.7-3.8,6.9-6.7,9.8
			c-2.9,2.8-6.2,5.1-10.1,6.7c-3.9,1.6-8.1,2.5-12.7,2.5c-5.1,0-9.6-1.1-13.6-3.3c-3.9-2.2-7-5.4-9.2-9.7c-2.2-4.2-3.3-9.4-3.3-15.4
			c0-3.3,0-6.9,0-10.8c0-3.9,0-7.8,0-11.6c0-3.9,0-7.3,0-10.2c0-2.2,0.6-3.8,1.8-4.9c1.2-1.1,2.5-1.6,4.1-1.6s2.9,0.5,4.1,1.6
			c1.2,1.1,1.8,2.7,1.8,4.9C508,287.6,508,290.9,508,294.4z"/>
		<path class="st0" d="M623.2,291.1c-1.2,0-2.4,0-3.6,0c-2.6,0-5,0-7.2,0s-4.6,0-7.2,0c-0.8,0-1.5,0-2.2,0c-0.7,0-1.5,0-2.3,0
			c-0.8,0-1.7,0-2.5,0c-2.2,0-3.8-0.6-4.9-1.8c-1.1-1.2-1.7-2.5-1.7-4.1s0.6-2.9,1.7-4.1c1.1-1.2,2.8-1.8,4.9-1.8c1.1,0,2,0,2.7,0
			c0.7,0,1.4,0,2,0s1.4,0,2.3,0c2.4,0,4.8,0,7.2,0c2.4,0,4.8,0,7.2,0c1.4,0,2.6,0,3.7,0c1.1,0,2.3,0,3.7,0c2.2,0,3.8,0.6,4.9,1.8
			c1.1,1.2,1.7,2.5,1.7,4.1s-0.6,2.9-1.7,4.1c-1.1,1.2-2.8,1.8-4.9,1.8C625.7,291.1,624.4,291.1,623.2,291.1z M606.1,333.3
			c0-1.6,0-3.3,0-4.9c0-1.6,0-3.6,0-5.7c0-2.9,0-5.6,0-8.3c0-2.6,0-5.4,0-8.3c0-2.9,0-6.1,0-9.7c0-3.6,0-7.7,0-12.5
			c0-1.8,0-3.7,0-5.7c0-2,0-3.9,0-5.8c0-1.9,0-3.4,0-4.7c0-2.2,0.6-3.8,1.8-4.9c1.2-1.1,2.5-1.7,4.1-1.7s2.9,0.6,4.1,1.7
			c1.2,1.1,1.8,2.8,1.8,4.9c0,1.5,0,2.8,0,3.9c0,1.1,0,2.3,0,3.4c0,1.1,0,2.4,0,3.8c0,1.4,0,3.1,0,5.1c0,3.2,0,6.2,0,9
			c0,2.8,0,5.7,0,8.7c0,2.9,0,6.1,0,9.5s0,7.2,0,11.6c0,2.3,0,4.3,0,5.9s0,3.1,0,4.6c0,1.5,0,3.4,0,5.8c0,2.2-0.6,3.8-1.8,4.9
			s-2.5,1.7-4.1,1.7s-2.9-0.5-4.1-1.6c-1.2-1.1-1.8-2.8-1.8-5C606.1,336.8,606.1,335,606.1,333.3z"/>
		<path class="st0" d="M689.2,333.1c0-2,0-4.1,0-6.1c0-2,0-3.9,0-5.7c0-2.1,0-4.4,0-7c0-2.6,0-5.4,0-8.3c0-3.6-0.6-6.7-1.8-9.1
			c-1.2-2.4-2.9-4.2-5.1-5.4c-2.3-1.2-5-1.8-8.3-1.8c-2.9,0-5.5,0.4-7.8,1.3c-2.3,0.9-4.4,2.2-6,4c-1.7,1.8-3,4-4,6.6
			c-1,2.6-1.4,5.6-1.4,9c0,2,0,4.7,0,8.1c0,3.4,0,7,0,10.7c0,3.7,0,6.9,0,9.6c0,1.7-0.4,3.1-1.2,4.2c-0.8,1.1-1.8,1.8-2.9,2.1
			c-1.2,0.3-2.3,0.3-3.5,0c-1.2-0.3-2.1-1.1-2.9-2.1c-0.8-1.1-1.2-2.5-1.2-4.2c0-1.4,0-3.8,0-7.3c0-3.5,0-7.6,0-12.3
			c0-4.7,0-9.6,0-14.6c0-5,0-9.8,0-14.2c0-4.5,0-8.2,0-11.3c0-3.1,0-5,0-5.7c0-2.4,0-4.9,0-7.3c0-2.4,0-4.7,0-6.8c0-2.1,0-3.9,0-5.4
			c0-2.2,0.6-3.8,1.8-4.9c1.2-1.1,2.5-1.6,4.1-1.6s2.9,0.5,4.1,1.6c1.2,1.1,1.8,2.7,1.8,4.9c0,1.5,0,2.9,0,4.2c0,1.3,0,2.7,0,4.2
			c0,1.4,0,3,0,4.8c0,1.8,0,3.9,0,6.3c0,0.4,0,2.1,0,4.9s0,6.5,0,10.8c0,4.3,0,9,0,13.9s0,9.8,0,14.6c0,4.8,0,9,0,12.8s0,6.6,0,8.4
			c0,1.7-0.4,3.1-1.2,4.2c-0.8,1.1-1.8,1.8-2.9,2.1c-1.2,0.3-2.3,0.3-3.5,0c-1.2-0.3-2.1-1.1-2.9-2.1c-0.8-1.1-1.2-2.5-1.2-4.2
			c0-2,0-4.1,0-6.3s0-4.5,0-6.8c0-2.3,0-4.7,0-7.1c0-2.4,0-4.7,0-6.8c0-4.4,0.8-8.7,2.4-12.7c1.6-4.1,3.9-7.7,6.8-10.9
			c2.9-3.2,6.3-5.7,10.1-7.5c3.9-1.8,8-2.7,12.6-2.7c3.7,0,7.2,0.6,10.3,1.8c3.2,1.2,5.9,3,8.3,5.4c2.3,2.4,4.2,5.3,5.5,8.8
			c1.3,3.5,2,7.5,2,12c0,2,0,4.3,0,6.9c0,2.6,0,5.4,0,8.5c0,2.1,0,4.1,0,5.9c0,1.9,0,3.7,0,5.6c0,1.9,0,3.9,0,6
			c0,2.2-0.6,3.8-1.8,4.9c-1.2,1.1-2.5,1.7-4.1,1.7c-1.6,0-2.9-0.6-4.1-1.7c-1.2-1.1-1.8-2.8-1.8-4.9
			C689.2,337.1,689.2,335.2,689.2,333.1z"/>
		<path class="st0" d="M775.8,291.6c0,1.9,0,3.9,0,6c0,2.1,0,4.6,0,7.3s0,6,0,9.7c0,4.9-0.8,9.3-2.3,13.1c-1.6,3.8-3.8,7-6.6,9.7
			c-2.8,2.6-6.1,4.7-9.9,6c-3.8,1.4-7.9,2.1-12.3,2.1s-8.5-0.8-12.4-2.5c-3.8-1.6-7.2-4-10-7c-2.9-3-5.1-6.6-6.6-10.7
			c-1.6-4.1-2.3-8.7-2.3-13.6c0-6.6,1.4-12.4,4.1-17.5c2.7-5.1,6.5-9,11.2-11.9c4.7-2.9,10-4.3,15.9-4.3c4.4,0,8.5,0.8,12.3,2.4
			c3.8,1.6,7.1,3.9,9.9,6.9c2.8,3,5,6.5,6.6,10.6c1.6,4.1,2.4,8.6,2.4,13.5c0,2,0,3.9,0,5.8c0,1.9,0,3.6,0,5.3c0,1.7,0,3.3,0,4.7
			c0,2.3,0,4.5,0,6.5c0,2,0,4.2,0,6.5c0,2.2-0.6,3.8-1.8,4.9c-1.2,1.1-2.5,1.7-4.1,1.7s-2.9-0.6-4.1-1.7c-1.2-1.1-1.8-2.8-1.8-4.9
			c0-1.4,0-2.8,0-4.3c0-1.5,0-2.9,0-4.4c0-1.4,0-2.9,0-4.4c0-1,0-2.4,0-4.5c0-2,0-4.1,0-6.2c0-2.1,0-3.8,0-5.1c0-4.2-0.8-8-2.5-11.3
			c-1.6-3.3-3.9-5.9-6.9-7.7c-2.9-1.8-6.3-2.7-10.1-2.7c-2.9,0-5.5,0.5-7.9,1.6c-2.4,1.1-4.5,2.6-6.2,4.6s-3,4.3-4,7
			c-1,2.7-1.4,5.6-1.4,8.8c0,3.2,0.5,6.2,1.4,8.8c1,2.7,2.3,5,4,7c1.7,2,3.8,3.5,6.2,4.6c2.4,1.1,5.1,1.6,7.9,1.6s5.5-0.4,7.9-1.2
			c2.4-0.8,4.4-2,6.2-3.6c1.7-1.6,3.1-3.6,4-6c0.9-2.4,1.4-5.2,1.4-8.5c0-2.5,0-5.2,0-7.9c0-2.8,0-5.5,0-8.2c0-2.7,0-5.2,0-7.5
			c0-2.3,0-4.2,0-5.7c0-2.2,0.6-3.8,1.8-4.9c1.2-1.1,2.5-1.7,4.1-1.7s2.9,0.6,4.1,1.7c1.2,1.1,1.8,2.8,1.8,4.9
			C775.8,287.6,775.8,289.7,775.8,291.6z M735.3,254.8c1.5-1.5,2.9-2.8,4.1-4c1.2-1.1,2.5-2,3.8-2.7s2.9-1,4.7-1
			c1.9,0,3.5,0.3,4.9,1c1.3,0.7,2.6,1.5,3.8,2.7c1.2,1.1,2.6,2.5,4,4c1.5,1.5,3.3,3.1,5.5,4.9c1.7,1.3,2.6,2.8,2.7,4.4
			c0.1,1.6-0.4,3-1.4,4.3c-1,1.3-2.3,2-3.8,2.2c-1.6,0.2-3.2-0.4-4.8-1.8c-2.1-1.8-3.9-3.5-5.4-4.9c-1.5-1.5-2.7-2.7-3.6-3.6
			c-0.9-0.9-1.5-1.4-1.9-1.4c-0.3-0.1-1,0.3-1.9,1.2c-0.9,0.9-2.1,2.1-3.6,3.6c-1.5,1.5-3.3,3.2-5.5,5.1c-1.6,1.5-3.3,2.1-4.9,1.9
			c-1.6-0.2-2.9-1-3.8-2.2c-1-1.3-1.4-2.7-1.3-4.4c0.1-1.6,1-3.1,2.7-4.4C731.9,258,733.8,256.3,735.3,254.8z M775.1,236.4
			c-1.1,1-2.2,1.9-3.3,2.8c-1.1,0.9-2.2,1.8-3.3,2.8c-1.1,1-2.3,1.9-3.4,2.9c-1.6,1.4-3.3,2-4.9,1.8c-1.6-0.2-2.9-0.8-3.9-2
			c-1-1.1-1.5-2.5-1.4-4.2c0.1-1.6,1-3.2,2.6-4.6c1-1,2.1-1.9,3.2-2.8c1.1-0.9,2.2-1.8,3.3-2.7c1.1-0.9,2.2-1.8,3.3-2.8
			c1.1-1,2.3-1.9,3.4-2.9c1.6-1.5,3.3-2.1,4.9-1.9c1.6,0.2,2.9,0.9,3.9,2c1,1.1,1.5,2.5,1.4,4.1c0,1.6-0.9,3.1-2.7,4.6
			C777.2,234.6,776.2,235.5,775.1,236.4z"/>
		<path class="st0" d="M816.8,291.1c-1.2,0-2.4,0-3.6,0c-2.6,0-5,0-7.2,0c-2.2,0-4.6,0-7.2,0c-0.8,0-1.5,0-2.2,0c-0.7,0-1.5,0-2.3,0
			c-0.8,0-1.7,0-2.5,0c-2.2,0-3.8-0.6-4.9-1.8c-1.1-1.2-1.7-2.5-1.7-4.1s0.6-2.9,1.7-4.1c1.1-1.2,2.8-1.8,4.9-1.8c1.1,0,2,0,2.7,0
			c0.7,0,1.4,0,2,0s1.4,0,2.3,0c2.4,0,4.8,0,7.2,0c2.4,0,4.8,0,7.2,0c1.4,0,2.6,0,3.7,0c1.1,0,2.3,0,3.7,0c2.2,0,3.8,0.6,4.9,1.8
			c1.1,1.2,1.7,2.5,1.7,4.1s-0.6,2.9-1.7,4.1c-1.1,1.2-2.8,1.8-4.9,1.8C819.3,291.1,818,291.1,816.8,291.1z M799.6,333.3
			c0-1.6,0-3.3,0-4.9c0-1.6,0-3.6,0-5.7c0-2.9,0-5.6,0-8.3c0-2.6,0-5.4,0-8.3c0-2.9,0-6.1,0-9.7c0-3.6,0-7.7,0-12.5
			c0-1.8,0-3.7,0-5.7c0-2,0-3.9,0-5.8c0-1.9,0-3.4,0-4.7c0-2.2,0.6-3.8,1.8-4.9c1.2-1.1,2.5-1.7,4.1-1.7c1.6,0,2.9,0.6,4.1,1.7
			c1.2,1.1,1.8,2.8,1.8,4.9c0,1.5,0,2.8,0,3.9c0,1.1,0,2.3,0,3.4c0,1.1,0,2.4,0,3.8c0,1.4,0,3.1,0,5.1c0,3.2,0,6.2,0,9
			c0,2.8,0,5.7,0,8.7c0,2.9,0,6.1,0,9.5s0,7.2,0,11.6c0,2.3,0,4.3,0,5.9s0,3.1,0,4.6c0,1.5,0,3.4,0,5.8c0,2.2-0.6,3.8-1.8,4.9
			c-1.2,1.1-2.5,1.7-4.1,1.7c-1.6,0-2.9-0.5-4.1-1.6c-1.2-1.1-1.8-2.8-1.8-5C799.6,336.8,799.6,335,799.6,333.3z"/>
		<path class="st0" d="M864.5,331.8c0-2.5,0-5.4,0-8.7c0-3.3,0-7.2,0-11.6c0-6.6,1.3-12.4,4-17.4c2.7-5,6.4-9,11.1-11.8
			c4.7-2.9,10-4.3,16-4.3c5.9,0,11.2,1.5,15.9,4.4c4.7,2.9,8.5,6.9,11.3,12c2.8,5.1,4.2,10.9,4.2,17.5c0,4.9-0.8,9.5-2.4,13.6
			c-1.6,4.1-3.8,7.7-6.7,10.7c-2.9,3-6.2,5.3-10,7s-7.8,2.5-12.2,2.5c-4.6,0-8.8-0.8-12.6-2.5c-3.8-1.6-7.1-3.8-9.9-6.5
			c-2.8-2.7-4.9-5.6-6.4-8.8c-1.5-3.2-2.3-6.3-2.3-9.3c0-6.8,0-12.3,0-16.5c0-4.2,0-7.9,0-10.9c0-3,0-5.8,0-8.5c0-2.7,0-5.8,0-9.4
			c0-2.8,0-5.2,0-7.2c0-2,0-4,0-5.9c0-1.9,0-4,0-6.4c0-2.2,0.6-3.8,1.8-4.9c1.2-1.1,2.5-1.6,4.1-1.6c1.6,0,2.9,0.5,4.1,1.6
			c1.2,1.1,1.8,2.7,1.8,4.9c0,2.5,0,4.6,0,6.3c0,1.7,0,3.4,0,5.3s0,4.2,0,7.2c0,3.7,0,7,0,9.7s0,5.6,0,8.5c0,2.9,0,6.5,0,10.7
			c0,4.2,0,9.6,0,16.3c0,1.8,0.5,3.7,1.5,5.6c1,1.9,2.4,3.6,4.2,5.2c1.8,1.6,3.8,2.8,6.2,3.8c2.3,1,4.9,1.5,7.7,1.5
			c2.8,0,5.4-0.5,7.7-1.6c2.4-1.1,4.4-2.6,6.2-4.6c1.7-2,3.1-4.3,4.1-7c1-2.7,1.5-5.6,1.5-8.8c0-3.2-0.5-6.2-1.4-8.8
			c-1-2.7-2.3-5-4-7c-1.7-2-3.8-3.5-6.2-4.6c-2.4-1.1-5.1-1.6-7.9-1.6c-3.9,0-7.3,0.9-10.2,2.8c-2.9,1.9-5.2,4.4-6.8,7.7
			c-1.6,3.3-2.4,7.1-2.4,11.3c0,4.9,0,8.8,0,11.4c0,2.7,0,4.7,0,6.2c0,1.4,0,2.8,0,4c0,1.3,0,3,0,5.1c0,2.2-0.6,3.8-1.8,4.9
			c-1.2,1.1-2.5,1.7-4.1,1.7c-1.6,0-2.9-0.6-4.1-1.7c-1.2-1.1-1.8-2.8-1.8-4.9C864.5,336.5,864.5,334.3,864.5,331.8z"/>
		<path class="st0" d="M999.4,291.6c0,1.9,0,3.9,0,6c0,2.1,0,4.6,0,7.3s0,6,0,9.7c0,4.9-0.8,9.3-2.3,13.1c-1.6,3.8-3.8,7-6.6,9.7
			c-2.8,2.6-6.1,4.7-9.9,6c-3.8,1.4-7.9,2.1-12.3,2.1s-8.5-0.8-12.4-2.5c-3.8-1.6-7.2-4-10-7c-2.9-3-5.1-6.6-6.6-10.7
			c-1.6-4.1-2.3-8.7-2.3-13.6c0-6.6,1.4-12.4,4.1-17.5c2.7-5.1,6.5-9,11.2-11.9c4.7-2.9,10-4.3,15.9-4.3c4.4,0,8.5,0.8,12.3,2.4
			c3.8,1.6,7.1,3.9,9.9,6.9c2.8,3,5,6.5,6.6,10.6c1.6,4.1,2.4,8.6,2.4,13.5c0,2,0,3.9,0,5.8c0,1.9,0,3.6,0,5.3c0,1.7,0,3.3,0,4.7
			c0,2.3,0,4.5,0,6.5c0,2,0,4.2,0,6.5c0,2.2-0.6,3.8-1.8,4.9c-1.2,1.1-2.5,1.7-4.1,1.7c-1.6,0-2.9-0.6-4.1-1.7
			c-1.2-1.1-1.8-2.8-1.8-4.9c0-1.4,0-2.8,0-4.3c0-1.5,0-2.9,0-4.4c0-1.4,0-2.9,0-4.4c0-1,0-2.4,0-4.5c0-2,0-4.1,0-6.2
			c0-2.1,0-3.8,0-5.1c0-4.2-0.8-8-2.5-11.3c-1.6-3.3-3.9-5.9-6.9-7.7c-2.9-1.8-6.3-2.7-10.1-2.7c-2.9,0-5.5,0.5-7.9,1.6
			c-2.4,1.1-4.5,2.6-6.2,4.6c-1.7,2-3,4.3-4,7c-1,2.7-1.4,5.6-1.4,8.8c0,3.2,0.5,6.2,1.4,8.8c1,2.7,2.3,5,4,7c1.7,2,3.8,3.5,6.2,4.6
			c2.4,1.1,5.1,1.6,7.9,1.6s5.5-0.4,7.9-1.2c2.4-0.8,4.4-2,6.2-3.6c1.7-1.6,3.1-3.6,4-6c0.9-2.4,1.4-5.2,1.4-8.5c0-2.5,0-5.2,0-7.9
			c0-2.8,0-5.5,0-8.2c0-2.7,0-5.2,0-7.5c0-2.3,0-4.2,0-5.7c0-2.2,0.6-3.8,1.8-4.9c1.2-1.1,2.5-1.7,4.1-1.7c1.6,0,2.9,0.6,4.1,1.7
			c1.2,1.1,1.8,2.8,1.8,4.9C999.4,287.6,999.4,289.7,999.4,291.6z M965.4,367c0-0.6,0-1.2,0-1.8c0-0.6,0-1.3,0-2.2
			c0-2,0.6-3.5,1.8-4.5c1.2-1,2.5-1.5,4.1-1.5c1.6,0,2.9,0.5,4.1,1.5c1.2,1,1.8,2.5,1.8,4.5c0,0.9,0,1.6,0,2.2c0,0.6,0,1.2,0,1.8
			c0,0.6,0,1.4,0,2.3c0,2-0.6,3.5-1.8,4.5c-1.2,1-2.5,1.5-4.1,1.5c-1.6,0-2.9-0.5-4.1-1.5c-1.2-1-1.8-2.5-1.8-4.5
			C965.4,368.4,965.4,367.6,965.4,367z"/>
		<path class="st0" d="M1017,259c0-0.6,0-1.2,0-1.8c0-0.6,0-1.3,0-2.2c0-2,0.6-3.5,1.8-4.5c1.2-1,2.5-1.5,4.1-1.5
			c1.6,0,2.9,0.5,4.1,1.5c1.2,1,1.8,2.5,1.8,4.5c0,0.9,0,1.6,0,2.2c0,0.6,0,1.2,0,1.8c0,0.6,0,1.4,0,2.3c0,2-0.6,3.5-1.8,4.5
			c-1.2,1-2.5,1.5-4.1,1.5c-1.6,0-2.9-0.5-4.1-1.5c-1.2-1-1.8-2.5-1.8-4.5C1017,260.4,1017,259.7,1017,259z M1017,333.3
			c0-1.9,0-3.8,0-5.5c0-1.8,0-3.5,0-5.1c0-2.9,0-5.5,0-7.7c0-2.2,0-4.3,0-6.5c0-2.2,0-4.7,0-7.7c0-1.6,0-3.3,0-4.9
			c0-1.6,0-3.4,0-5.3c0-1.9,0-3.9,0-6c0-2.2,0.6-3.8,1.8-4.9c1.2-1.1,2.5-1.6,4.1-1.6c1.6,0,2.9,0.5,4.1,1.6
			c1.2,1.1,1.8,2.7,1.8,4.9c0,2.3,0,4.2,0,5.9c0,1.7,0,3.3,0,4.9c0,1.6,0,3.4,0,5.4c0,2,0,4.3,0,7c0,2.6,0,5.3,0,7.9c0,2.6,0,5,0,7
			c0,2,0,3.9,0,5.6c0,1.7,0,3.4,0,5.1c0,1.7,0,3.5,0,5.5c0,2.2-0.6,3.8-1.8,4.9s-2.5,1.7-4.1,1.7c-1.6,0-2.9-0.5-4.1-1.6
			c-1.2-1.1-1.8-2.8-1.8-5C1017,337.1,1017,335.2,1017,333.3z"/>
		<path class="st0" d="M217.9,424.5c0,2.3,0,4.8,0,7.5c0,3.1,0,7,0,11.6c0,4.6,0,9.6,0,14.8c0,5.2,0,10.3,0,15.2s0,9.3,0,13.1
			s0,6.5,0,8.3c0,1.7-0.4,3.1-1.2,4.2c-0.8,1.1-1.8,1.8-2.9,2.1c-1.2,0.3-2.3,0.3-3.5,0c-1.2-0.3-2.1-1.1-2.9-2.1
			c-0.8-1.1-1.2-2.5-1.2-4.2c0-1.9,0-4.2,0-7c0-2.8,0-5.6,0-8.5c0-2.9,0-5.6,0-8.1s0-4.3,0-5.5c0-3.9,0.8-7.2,2.5-9.8
			c1.7-2.6,3.9-4.6,6.6-5.9c2.7-1.3,5.5-2,8.5-2c6.9,0,13,0,18.5,0s10.5,0,15.1,0c1.6,0,2.8-0.2,3.6-0.6c0.9-0.4,1.5-1,1.8-1.9
			c0.3-0.9,0.5-2,0.5-3.4c0-1,0-2.4,0-4.4s0-4.1,0-6.6c0-2.4,0-4.9,0-7.5c0-2.6,0-4.9,0-7.1c0-1.7,0.4-3.1,1.2-4.2
			c0.8-1.1,1.8-1.8,2.9-2.1c1.2-0.3,2.3-0.3,3.5,0c1.2,0.3,2.1,1.1,2.9,2.1c0.8,1.1,1.2,2.5,1.2,4.2c0,1.4,0,3.7,0,7
			c0,3.3,0,7.1,0,11.4c0,4.3,0,8.8,0,13.5c0,4.6,0,9.1,0,13.3c0,4.3,0,7.9,0,11.1s0,5.3,0,6.5c0,1.8,0,3.5,0,5.1c0,1.6,0,3.2,0,4.8
			c0,1.6,0,3.4,0,5.3c0,2.2-0.6,3.8-1.8,4.9c-1.2,1.1-2.5,1.7-4.1,1.7s-2.9-0.6-4.1-1.7c-1.2-1.1-1.8-2.8-1.8-4.9c0-1.7,0-3.4,0-5.1
			c0-1.7,0-3.4,0-5.1c0-1.7,0-3.4,0-5c0-0.9,0-2.8,0-5.7c0-2.9,0-6.5,0-10.8c0-4.2,0-8.8,0-13.5c0-4.8,0-9.4,0-13.9
			c0-4.5,0-8.4,0-11.8c0-3.4,0-5.8,0-7.2c0-1.7,0.4-3.1,1.2-4.2c0.8-1.1,1.8-1.8,2.9-2.1c1.2-0.3,2.3-0.3,3.5,0
			c1.2,0.3,2.1,1.1,2.9,2.1c0.8,1.1,1.2,2.5,1.2,4.2c0,2.2,0,4.4,0,6.8c0,2.4,0,4.7,0,7.1s0,4.5,0,6.5c0,2,0,3.7,0,5.1
			c0,3.5-0.7,6.5-2,9.2c-1.3,2.6-3.3,4.7-5.9,6.2c-2.6,1.5-5.9,2.2-9.8,2.2c-6.9,0-13,0-18.5,0s-10.5,0-15.1,0c-1.1,0-2.1,0.2-3,0.5
			c-0.9,0.3-1.6,1-2.1,1.8c-0.5,0.9-0.8,2-0.8,3.5c0,1.8,0,4,0,6.6c0,2.6,0,5.2,0,8c0,2.8,0,5.4,0,8c0,2.6,0,4.7,0,6.6
			c0,1.7-0.4,3.1-1.2,4.2c-0.8,1.1-1.8,1.8-2.9,2.1c-1.2,0.3-2.3,0.3-3.5,0c-1.2-0.3-2.1-1.1-2.9-2.1c-0.8-1.1-1.2-2.5-1.2-4.2
			c0-1.4,0-3.6,0-6.8s0-6.8,0-10.9s0-8.5,0-13c0-4.5,0-8.9,0-13.1c0-4.2,0-8.1,0-11.4c0-3.4,0-5.9,0-7.7c0-1.6,0-3.3,0-5s0-3.4,0-5
			c0-1.6,0-3.3,0-5.1c0-2.2,0.6-3.8,1.8-4.9c1.2-1.1,2.5-1.7,4.1-1.7s2.9,0.6,4.1,1.7c1.2,1.1,1.8,2.8,1.8,4.9
			C217.9,419.8,217.9,422.3,217.9,424.5z"/>
		<path class="st0" d="M352.6,447.7c0,1.9,0,3.9,0,6c0,2.1,0,4.6,0,7.3s0,6,0,9.7c0,4.9-0.8,9.3-2.3,13.1c-1.6,3.8-3.8,7-6.6,9.7
			c-2.8,2.6-6.1,4.7-9.9,6c-3.8,1.4-7.9,2.1-12.3,2.1s-8.5-0.8-12.4-2.5c-3.8-1.6-7.2-4-10-7c-2.9-3-5.1-6.6-6.6-10.7
			c-1.6-4.1-2.3-8.7-2.3-13.6c0-6.6,1.4-12.4,4.1-17.5c2.7-5.1,6.5-9,11.2-11.9c4.7-2.9,10-4.3,15.9-4.3c4.4,0,8.5,0.8,12.3,2.4
			c3.8,1.6,7.1,3.9,9.9,6.9c2.8,3,5,6.5,6.6,10.6c1.6,4.1,2.4,8.6,2.4,13.5c0,2,0,3.9,0,5.8c0,1.9,0,3.6,0,5.3c0,1.7,0,3.3,0,4.7
			c0,2.3,0,4.5,0,6.5c0,2,0,4.2,0,6.5c0,2.2-0.6,3.8-1.8,4.9c-1.2,1.1-2.5,1.7-4.1,1.7s-2.9-0.6-4.1-1.7c-1.2-1.1-1.8-2.8-1.8-4.9
			c0-1.4,0-2.8,0-4.3c0-1.5,0-2.9,0-4.4c0-1.4,0-2.9,0-4.4c0-1,0-2.4,0-4.5c0-2,0-4.1,0-6.2c0-2.1,0-3.8,0-5.1c0-4.2-0.8-8-2.5-11.3
			c-1.6-3.3-3.9-5.9-6.9-7.7c-2.9-1.8-6.3-2.7-10.1-2.7c-2.9,0-5.5,0.5-7.9,1.6c-2.4,1.1-4.5,2.6-6.2,4.6c-1.7,2-3,4.3-4,7
			c-1,2.7-1.4,5.6-1.4,8.8c0,3.2,0.5,6.2,1.4,8.8c1,2.7,2.3,5,4,7c1.7,2,3.8,3.5,6.2,4.6c2.4,1.1,5.1,1.6,7.9,1.6s5.5-0.4,7.9-1.2
			c2.4-0.8,4.4-2,6.2-3.6c1.7-1.6,3.1-3.6,4-6c0.9-2.4,1.4-5.2,1.4-8.5c0-2.5,0-5.2,0-7.9c0-2.8,0-5.5,0-8.2c0-2.7,0-5.2,0-7.5
			c0-2.3,0-4.2,0-5.7c0-2.2,0.6-3.8,1.8-4.9c1.2-1.1,2.5-1.7,4.1-1.7s2.9,0.6,4.1,1.7c1.2,1.1,1.8,2.8,1.8,4.9
			C352.6,443.7,352.6,445.8,352.6,447.7z M345.7,415.9c-0.7,2.1-1.7,3.9-2.9,5.5c-1.3,1.6-2.8,2.8-4.5,3.6c-1.7,0.9-3.7,1.3-5.9,1.3
			c-2.9,0-5.4-0.7-7.2-2.2c-1.9-1.5-3.5-3.2-5-5.2c-0.5-0.8-1-1.5-1.5-2c-0.5-0.6-0.9-1-1.4-1.4c-0.4-0.3-0.9-0.5-1.3-0.5
			c-0.4,0-0.8,0.2-1.1,0.7c-0.3,0.5-0.5,1.2-0.6,2.3c-0.1,1-0.2,2.4-0.3,4.2c-0.1,1.7-0.7,3-1.9,3.9c-1.2,0.9-2.5,1.3-4,1.2
			c-1.5-0.1-2.9-0.7-4-1.8c-1.2-1.1-1.8-2.8-1.8-4.9c0-2.5,0.3-4.8,1-6.9c0.7-2.1,1.6-3.9,2.9-5.4c1.3-1.5,2.8-2.7,4.5-3.6
			c1.7-0.9,3.6-1.3,5.7-1.3c2.9,0,5.2,0.7,7.1,2.1c1.9,1.4,3.4,2.9,4.5,4.4c0.4,0.5,0.9,1.1,1.3,1.6c0.4,0.6,0.8,1.1,1.2,1.6
			c0.4,0.5,0.8,0.9,1.2,1.2c0.4,0.3,0.8,0.5,1.1,0.5c0.5,0,0.9-0.2,1.2-0.6c0.3-0.4,0.5-1.1,0.7-2c0.2-1,0.3-2.2,0.3-3.8
			c0-2,0.6-3.5,1.8-4.4c1.2-1,2.5-1.4,4.1-1.4c1.6,0,2.9,0.6,4.1,1.7c1.2,1.1,1.8,2.8,1.8,5C346.8,411.6,346.4,413.9,345.7,415.9z"
			/>
		<path class="st0" d="M378.3,511c0.5-1,1-2.1,1.4-3.1c0.5-1,1-2.1,1.4-3.1c0.5-1,0.9-2,1.4-3.1c0.3-0.9,0.7-1.7,1-2.5
			c0.3-0.8,0.7-1.5,1-2.3c0.3-0.7,0.7-1.5,0.9-2.1c0.6-1.3,0.8-2.6,0.7-4c-0.2-1.3-0.6-2.8-1.3-4.4c-0.7-1.6-1.6-3.3-2.6-5.2
			c-1-1.9-2.1-4-3.3-6.4c-0.9-1.8-1.9-4-3.1-6.6c-1.2-2.6-2.5-5.3-3.8-8.2c-1.3-2.9-2.7-5.8-4.1-8.8c-1.4-2.9-2.7-5.7-3.9-8.3
			c-0.9-2-1-3.7-0.4-5.2c0.6-1.5,1.6-2.5,3-3.2c1.4-0.7,2.8-0.7,4.4-0.3c1.5,0.5,2.8,1.7,3.7,3.7c1.2,2.7,2.5,5.5,3.8,8.4
			c1.3,2.9,2.7,5.8,4,8.7c1.3,2.9,2.6,5.6,3.8,8.1c1.2,2.5,2.2,4.7,3.1,6.5c2.1,4.2,3.8,7.8,5.1,10.6c1.3,2.8,2.3,5.2,2.9,7.3
			c0.6,2,0.7,4,0.5,5.8c-0.2,1.8-0.8,3.9-1.9,6.2c-0.3,0.6-0.6,1.3-1,2.1c-0.4,0.8-0.8,1.6-1.1,2.5c-0.3,0.9-0.7,1.7-1,2.5
			c-0.4,1-0.9,2.1-1.3,3.1c-0.4,1-0.9,2.1-1.4,3.1c-0.5,1-0.9,2.1-1.4,3.1c-0.4,1-0.9,2-1.3,2.9c-0.8,1.6-1.8,2.7-2.9,3.3
			c-1.2,0.7-2.3,0.9-3.5,0.7c-1.2-0.2-2.2-0.7-3.1-1.5c-0.9-0.8-1.5-1.9-1.8-3.2s0-2.7,0.7-4.3C377.4,513.1,377.9,512.1,378.3,511z
			 M419.6,447.8c-0.7,1.6-1.5,3.3-2.2,4.9c-0.7,1.6-1.4,3.2-2.1,4.7c-0.7,1.5-1.2,2.8-1.8,3.9c-1.8,4.2-3.8,8.7-6,13.5
			c-2.2,4.9-4.3,9.5-6.3,13.9c-2,4.4-3.6,8.1-4.9,10.9c-0.3,0.8-0.7,1.6-1,2.4c-0.3,0.8-0.7,1.6-1.1,2.4s-0.8,1.6-1.1,2.5
			c-0.4,1-0.9,2.1-1.3,3.1c-0.4,1-0.9,2-1.3,3c-0.4,1-0.9,2-1.4,3c-0.5,1-0.9,2-1.4,2.9c-0.8,1.6-1.8,2.7-2.9,3.3
			c-1.2,0.7-2.3,0.9-3.5,0.7c-1.2-0.2-2.2-0.7-3.1-1.5c-0.9-0.8-1.5-1.9-1.8-3.2s0-2.7,0.7-4.3c0.4-1,0.9-2,1.4-3
			c0.5-1,1-2.1,1.5-3.1c0.5-1,1-2.1,1.5-3.1c0.5-1,0.9-2,1.4-3c0.3-0.9,0.7-1.6,1-2.3c0.3-0.7,0.6-1.4,0.9-2.1
			c0.3-0.7,0.6-1.5,1-2.3c0.9-2,2-4.5,3.4-7.5c1.4-3,2.9-6.3,4.5-9.8c1.6-3.6,3.2-7.2,4.9-10.8c1.6-3.6,3.2-7.1,4.6-10.3
			c0.7-1.5,1.5-3.3,2.4-5.3c0.9-2.1,1.9-4.3,2.9-6.6c1-2.3,2-4.4,2.9-6.4c0.9-2,2.1-3.3,3.6-3.8c1.5-0.5,3-0.5,4.4,0.1
			c1.4,0.6,2.5,1.6,3.1,3.1c0.7,1.5,0.5,3.2-0.5,5.2C421,444.6,420.3,446.2,419.6,447.8z"/>
		<path class="st0" d="M508.4,511.2c0-1.6,0-3.2,0-4.8c0-1.6,0-3.3,0-5.1c0-2,0-4,0-6.1c0-2.1,0-4.3,0-6.6s0-4.9,0-7.7
			c0-2.8,0-5.9,0-9.2c0-4.4-0.5-8.3-1.4-11.5c-0.9-3.3-2.2-5.9-3.8-8.1c-1.6-2.1-3.7-3.7-6-4.7c-2.4-1-5.1-1.5-8.1-1.5
			c-2.9,0-5.5,0.5-7.9,1.6c-2.4,1.1-4.4,2.6-6.2,4.6c-1.7,2-3.1,4.3-4.1,7c-1,2.7-1.5,5.6-1.5,8.8c0,3.2,0.5,6.2,1.4,8.8
			c1,2.7,2.3,5,4,7c1.7,2,3.8,3.5,6.2,4.6c2.4,1.1,5,1.6,7.9,1.6c3.8,0,7.2-0.9,10.1-2.8c2.9-1.9,5.2-4.5,6.9-7.8
			c1.6-3.3,2.5-7.1,2.5-11.4c0-3.2,0-6.6,0-10.1s0-6.8,0-9.9c0-3.1,0-5.5,0-7.3c0-2.2,0.6-3.8,1.8-4.9c1.2-1.1,2.5-1.6,4.1-1.6
			s2.9,0.5,4.1,1.6c1.2,1.1,1.8,2.7,1.8,4.9c0,2.1,0,4,0,5.8c0,1.8,0,3.6,0,5.6c0,2,0,4.2,0,6.8c0,2.6,0,5.6,0,9.2
			c0,4.9-0.8,9.5-2.3,13.5c-1.6,4.1-3.8,7.6-6.6,10.7c-2.9,3-6.2,5.4-10,7c-3.8,1.6-7.9,2.5-12.3,2.5c-5.9,0-11.2-1.5-15.9-4.4
			c-4.7-2.9-8.5-6.9-11.2-12c-2.7-5.1-4.1-10.9-4.1-17.4c0-4.9,0.8-9.5,2.4-13.6c1.6-4.1,3.8-7.7,6.7-10.7c2.9-3,6.2-5.4,10-7
			c3.8-1.6,7.9-2.5,12.2-2.5c4.3,0,8.4,0.7,12.2,2.2c3.8,1.5,7.1,3.8,9.9,6.8c2.8,3.1,5,7,6.6,11.7c1.6,4.7,2.4,10.3,2.4,16.7
			c0,2.3,0,4.8,0,7.7s0,5.7,0,8.5c0,2.8,0,5.4,0,7.8c0,2.4,0,4.3,0,5.7c0,1.5,0,3.1,0,4.9c0,1.8,0,3.6,0,5.3c0,1.8,0,3.4,0,5
			c0,2.2-0.6,3.8-1.8,4.9c-1.2,1.1-2.5,1.7-4.1,1.7s-2.9-0.6-4.1-1.7c-1.2-1.1-1.8-2.8-1.8-4.9C508.4,514.6,508.4,512.8,508.4,511.2
			z"/>
		<path class="st0" d="M547.6,450.5c0,3.6,0,7.2,0,11.1c0,3.8,0,7.7,0,11.7c0,3.6,0.5,6.7,1.6,9.2c1.1,2.5,2.7,4.3,4.9,5.6
			c2.2,1.3,4.8,1.9,7.9,1.9c2.9,0,5.5-0.5,8-1.5c2.5-1,4.6-2.4,6.4-4.1c1.8-1.7,3.2-3.7,4.2-6c1-2.3,1.5-4.7,1.5-7.3
			c0-1,0-2.8,0-5.2c0-2.4,0-5.2,0-8.2c0-3,0-6.1,0-9.1c0-3,0-5.7,0-7.9c0-1.7,0.4-3.1,1.2-4.2c0.8-1,1.8-1.7,2.9-2.1
			c1.2-0.3,2.3-0.3,3.5,0c1.2,0.3,2.1,1,2.9,2.1c0.8,1,1.2,2.4,1.2,4.2c0,2.3,0,5.3,0,8.9c0,3.6,0,7.4,0,11.4c0,4,0,7.7,0,11.2
			c0,3.5,0,6.2,0,8.2c0,2.1,0,3.9,0,5.5c0,1.6,0,3.1,0,4.5c0,1.4,0,3.1,0,5c0,2.2-0.6,3.8-1.8,4.9c-1.2,1.1-2.5,1.6-4.1,1.6
			s-2.9-0.5-4.1-1.6c-1.2-1.1-1.8-2.7-1.8-4.9c0-2,0-3.9,0-5.6c0-1.7,0-3.4,0-4.9c0-1.6,0-3,0-4.4c0-2.9,0-6.2,0-9.8
			c0-3.6,0-7.3,0-11c0-3.7,0-7.2,0-10.5c0-3.3,0-6.1,0-8.3c0-1.7,0.4-3.1,1.2-4.2c0.8-1,1.8-1.7,2.9-2.1c1.2-0.3,2.3-0.3,3.5,0
			c1.2,0.3,2.1,1,2.9,2.1c0.8,1,1.2,2.4,1.2,4.2c0,2.3,0,4.9,0,7.8c0,2.9,0,5.7,0,8.6s0,5.5,0,8s0,4.5,0,6c0,4.1-0.8,8-2.4,11.6
			c-1.6,3.7-3.8,6.9-6.7,9.8c-2.9,2.8-6.2,5.1-10.1,6.7c-3.9,1.6-8.1,2.5-12.7,2.5c-5.1,0-9.6-1.1-13.6-3.3c-3.9-2.2-7-5.4-9.2-9.7
			c-2.2-4.2-3.3-9.4-3.3-15.4c0-3.3,0-6.9,0-10.8s0-7.8,0-11.6c0-3.9,0-7.3,0-10.2c0-2.2,0.6-3.8,1.8-4.9c1.2-1.1,2.5-1.6,4.1-1.6
			s2.9,0.5,4.1,1.6c1.2,1.1,1.8,2.7,1.8,4.9C547.6,443.7,547.6,447,547.6,450.5z"/>
		<path class="st0" d="M632.6,462c2.9,0,5.8,0,8.8,0c3,0,5.9,0,8.8,0c1,0,2,0,2.8,0.1c0.8,0,1.5,0,2-0.1c0.5-0.1,0.8-0.4,1-0.7
			c0.2-0.3,0.2-1,0.1-1.8c-0.6-2.8-1.7-5.2-3.2-7.2c-1.5-2-3.4-3.6-5.8-4.7c-2.3-1.1-5-1.6-7.9-1.6c-3.9,0-7.4,0.9-10.3,2.7
			c-3,1.8-5.3,4.4-7,7.7c-1.7,3.3-2.5,7.2-2.5,11.6c0,4.7,0.9,8.7,2.7,12c1.8,3.3,4.3,5.8,7.5,7.5c3.2,1.7,6.8,2.5,10.9,2.5
			c1.8,0,3.7-0.2,5.7-0.6c2-0.4,4-1,6-1.8c2-0.8,4.1-1.7,6.2-2.9c1.9-1.1,3.6-1.4,5.1-0.9c1.5,0.5,2.7,1.5,3.4,2.8
			c0.8,1.3,1,2.8,0.6,4.4c-0.4,1.6-1.5,2.9-3.4,3.9c-2.7,1.6-5.4,2.8-8.1,3.8c-2.7,1-5.4,1.7-8,2.2c-2.6,0.5-5.2,0.7-7.6,0.7
			c-6.1,0-11.6-1.3-16.5-4c-4.9-2.7-8.9-6.5-11.8-11.6c-2.9-5-4.4-11.1-4.4-18.1c0-6.8,1.4-12.7,4.2-17.8c2.8-5.1,6.5-9,11.3-11.8
			c4.8-2.8,10.1-4.2,16.1-4.2c4.8,0,9.1,1,13.1,2.9c4,1.9,7.3,4.6,10,8c2.6,3.4,4.4,7.5,5.3,12.3c0.5,2.7,0.6,5.1,0.3,7.2
			c-0.3,2.1-1.2,3.8-2.6,5.1c-1.4,1.3-3.3,2.4-5.8,3.1c-2.5,0.7-5.5,1-9.2,1c-2.8,0-5.3,0-7.7,0c-2.3,0-4.5,0-6.6,0c-2,0-4,0-5.9,0
			c-1.9,0-3.7,0-5.5,0c-2.2,0-3.8-0.6-4.9-1.8c-1.1-1.2-1.7-2.5-1.7-4.1c0-1.6,0.6-2.9,1.7-4.1c1.1-1.2,2.8-1.8,4.9-1.8
			C627,462,629.7,462,632.6,462z M652.2,417c-1.1,1-2.2,1.9-3.3,2.8c-1.1,0.9-2.2,1.8-3.3,2.8c-1.1,1-2.3,1.9-3.4,2.9
			c-1.6,1.4-3.3,2-4.9,1.8c-1.6-0.2-2.9-0.8-3.9-2c-1-1.1-1.5-2.5-1.4-4.2c0.1-1.6,1-3.2,2.6-4.6c1-1,2.1-1.9,3.2-2.8
			c1.1-0.9,2.2-1.8,3.3-2.7c1.1-0.9,2.2-1.8,3.3-2.8c1.1-1,2.3-1.9,3.4-2.9c1.6-1.5,3.3-2.1,4.9-1.9c1.6,0.2,2.9,0.9,3.9,2
			c1,1.1,1.5,2.5,1.4,4.1c0,1.6-0.9,3.1-2.7,4.6C654.3,415.1,653.3,416,652.2,417z"/>
		<path class="st0" d="M706.2,447.2c-1.2,0-2.4,0-3.6,0c-2.6,0-5,0-7.2,0c-2.2,0-4.6,0-7.2,0c-0.8,0-1.5,0-2.2,0c-0.7,0-1.5,0-2.3,0
			c-0.8,0-1.7,0-2.5,0c-2.2,0-3.8-0.6-4.9-1.8c-1.1-1.2-1.7-2.5-1.7-4.1c0-1.6,0.6-2.9,1.7-4.1c1.1-1.2,2.8-1.8,4.9-1.8
			c1.1,0,2,0,2.7,0c0.7,0,1.4,0,2,0s1.4,0,2.3,0c2.4,0,4.8,0,7.2,0c2.4,0,4.8,0,7.2,0c1.4,0,2.6,0,3.7,0c1.1,0,2.3,0,3.7,0
			c2.2,0,3.8,0.6,4.9,1.8c1.1,1.2,1.7,2.5,1.7,4.1c0,1.6-0.6,2.9-1.7,4.1c-1.1,1.2-2.8,1.8-4.9,1.8
			C708.7,447.2,707.4,447.2,706.2,447.2z M689,489.4c0-1.6,0-3.3,0-4.9c0-1.6,0-3.6,0-5.7c0-2.9,0-5.6,0-8.3c0-2.6,0-5.4,0-8.3
			c0-2.9,0-6.1,0-9.7c0-3.6,0-7.7,0-12.5c0-1.8,0-3.7,0-5.7c0-2,0-3.9,0-5.8c0-1.9,0-3.4,0-4.7c0-2.2,0.6-3.8,1.8-4.9
			c1.2-1.1,2.5-1.7,4.1-1.7c1.6,0,2.9,0.6,4.1,1.7c1.2,1.1,1.8,2.8,1.8,4.9c0,1.5,0,2.8,0,3.9c0,1.1,0,2.3,0,3.4c0,1.1,0,2.4,0,3.8
			c0,1.4,0,3.1,0,5.1c0,3.2,0,6.2,0,9c0,2.8,0,5.7,0,8.7c0,2.9,0,6.1,0,9.5c0,3.4,0,7.2,0,11.6c0,2.3,0,4.3,0,5.9c0,1.6,0,3.1,0,4.6
			c0,1.5,0,3.4,0,5.8c0,2.2-0.6,3.8-1.8,4.9c-1.2,1.1-2.5,1.7-4.1,1.7c-1.6,0-2.9-0.5-4.1-1.6c-1.2-1.1-1.8-2.8-1.8-5
			C689,492.9,689,491.1,689,489.4z"/>
		<path class="st0" d="M765.7,446c0,1.6,0,3.3,0,4.9c0,1.6,0,3.4,0,5.3c0,0.9,0,2.5,0,4.9c0,2.4,0,5.2,0,8.4c0,3.2,0,6.5,0,9.8
			c0,3.3,0,6.4,0,9.2c0,2.8,0,5,0,6.4c0,1.7-0.4,3.1-1.2,4.2s-1.8,1.8-2.9,2.1c-1.2,0.3-2.3,0.3-3.5,0c-1.2-0.3-2.1-1.1-2.9-2.1
			c-0.8-1.1-1.2-2.5-1.2-4.2c0-1.8,0-3.9,0-6.2c0-2.3,0-4.8,0-7.3c0-2.6,0-5.1,0-7.7c0-2.6,0-4.9,0-7.1c0-4.8,0.7-9.1,2.1-13.1
			c1.4-3.9,3.4-7.4,6-10.3c2.6-2.9,5.6-5.2,9.1-6.8c3.5-1.6,7.2-2.4,11.2-2.4c3.1,0,6.1,0.5,8.8,1.6c2.8,1,5.2,2.7,7.4,4.9
			c2.2,2.2,3.9,5,5.1,8.3c1.2,3.3,1.8,7.3,1.8,11.9c0,0.8,0,2.2,0,4.4c0,2.1,0,4.6,0,7.4c0,2.8,0,5.7,0,8.7c0,2.9,0,5.6,0,8.1
			c0,2.4,0,4.3,0,5.7c0,1.7-0.4,3.1-1.2,4.2c-0.8,1.1-1.8,1.8-2.9,2.1c-1.2,0.3-2.3,0.3-3.5,0c-1.2-0.3-2.1-1.1-2.9-2.1
			c-0.8-1.1-1.2-2.5-1.2-4.2c0-1.6,0-3.8,0-6.4c0-2.6,0-5.4,0-8.3c0-2.9,0-5.6,0-8c0-2.4,0-4.3,0-5.6c0-4.8,0.7-9.1,2.1-13.1
			c1.4-3.9,3.4-7.4,6-10.3c2.6-2.9,5.6-5.2,9.1-6.8c3.5-1.6,7.2-2.4,11.2-2.4c3.1,0,6.1,0.5,8.8,1.6c2.8,1,5.2,2.7,7.4,4.9
			c2.2,2.2,3.9,5,5.1,8.3c1.2,3.3,1.8,7.3,1.8,11.9c0,1.3,0,3,0,5.1c0,2.1,0,4.2,0,6.3c0,2.1,0,3.8,0,5.2c0,2.1,0,4.1,0,5.9
			c0,1.9,0,3.7,0,5.6c0,1.9,0,3.9,0,6c0,2.2-0.6,3.8-1.8,4.9c-1.2,1.1-2.5,1.7-4.1,1.7c-1.6,0-2.9-0.6-4.1-1.7
			c-1.2-1.1-1.8-2.8-1.8-4.9c0-1.8,0-3.8,0-5.8c0-2,0-4.1,0-6.1c0-2,0-3.9,0-5.7c0-3,0-5.8,0-8.4c0-2.6,0-5.3,0-8.3
			c0-3.6-0.5-6.4-1.4-8.6c-0.9-2.2-2.2-3.8-3.9-4.8c-1.7-1-3.8-1.6-6.2-1.6c-2.5,0-4.8,0.4-6.9,1.2c-2.1,0.8-3.9,1.9-5.3,3.4
			c-1.5,1.5-2.6,3.4-3.4,5.7c-0.8,2.3-1.2,4.9-1.2,7.9c0,1.9,0,4.3,0,7.1c0,2.8,0,5.8,0,8.8c0,3.1,0,6,0,8.7c0,2.7,0,4.8,0,6.4
			c0,1.7-0.4,3.1-1.2,4.2c-0.8,1.1-1.8,1.8-2.9,2.1c-1.2,0.3-2.3,0.3-3.5,0c-1.2-0.3-2.1-1.1-2.9-2.1c-0.8-1.1-1.2-2.5-1.2-4.2
			c0-1.6,0-3.9,0-7s0-6.5,0-10.1s0-7,0-10.1s0-5.4,0-6.9c0-3.6-0.5-6.4-1.4-8.6c-0.9-2.2-2.2-3.8-3.9-4.8c-1.7-1-3.8-1.6-6.2-1.6
			c-2.5,0-4.8,0.4-6.9,1.2c-2.1,0.8-3.9,1.9-5.3,3.4c-1.5,1.5-2.6,3.4-3.4,5.7c-0.8,2.3-1.2,4.9-1.2,7.9c0,1.5,0,3.6,0,6.2
			c0,2.7,0,5.6,0,8.7c0,3.1,0,6,0,8.9s0,5.2,0,7.2c0,1.7-0.4,3.1-1.2,4.2s-1.8,1.8-2.9,2.1c-1.2,0.3-2.3,0.3-3.5,0
			c-1.2-0.3-2.1-1.1-2.9-2.1c-0.8-1.1-1.2-2.5-1.2-4.2c0-1.5,0-3.6,0-6.5s0-6,0-9.5c0-3.5,0-6.8,0-10.1s0-6,0-8.4s0-3.8,0-4.3
			c0-1.7,0-3.5,0-5.2c0-1.7,0-3.5,0-5.2c0-1.7,0-3.5,0-5.2c0-2.2,0.6-3.8,1.8-4.9c1.2-1.1,2.5-1.6,4.1-1.6c1.6,0,2.9,0.5,4.1,1.6
			c1.2,1.1,1.8,2.7,1.8,4.9C765.7,442.6,765.7,444.3,765.7,446z"/>
		<path class="st0" d="M920.6,447.7c0,1.9,0,3.9,0,6c0,2.1,0,4.6,0,7.3s0,6,0,9.7c0,4.9-0.8,9.3-2.3,13.1c-1.6,3.8-3.8,7-6.6,9.7
			c-2.8,2.6-6.1,4.7-9.9,6c-3.8,1.4-7.9,2.1-12.3,2.1s-8.5-0.8-12.4-2.5c-3.8-1.6-7.2-4-10-7c-2.9-3-5.1-6.6-6.6-10.7
			c-1.6-4.1-2.3-8.7-2.3-13.6c0-6.6,1.4-12.4,4.1-17.5c2.7-5.1,6.5-9,11.2-11.9c4.7-2.9,10-4.3,15.9-4.3c4.4,0,8.5,0.8,12.3,2.4
			c3.8,1.6,7.1,3.9,9.9,6.9c2.8,3,5,6.5,6.6,10.6c1.6,4.1,2.4,8.6,2.4,13.5c0,2,0,3.9,0,5.8c0,1.9,0,3.6,0,5.3c0,1.7,0,3.3,0,4.7
			c0,2.3,0,4.5,0,6.5c0,2,0,4.2,0,6.5c0,2.2-0.6,3.8-1.8,4.9c-1.2,1.1-2.5,1.7-4.1,1.7c-1.6,0-2.9-0.6-4.1-1.7
			c-1.2-1.1-1.8-2.8-1.8-4.9c0-1.4,0-2.8,0-4.3c0-1.5,0-2.9,0-4.4c0-1.4,0-2.9,0-4.4c0-1,0-2.4,0-4.5c0-2,0-4.1,0-6.2
			c0-2.1,0-3.8,0-5.1c0-4.2-0.8-8-2.5-11.3c-1.6-3.3-3.9-5.9-6.9-7.7c-2.9-1.8-6.3-2.7-10.1-2.7c-2.9,0-5.5,0.5-7.9,1.6
			c-2.4,1.1-4.5,2.6-6.2,4.6c-1.7,2-3,4.3-4,7c-1,2.7-1.4,5.6-1.4,8.8c0,3.2,0.5,6.2,1.4,8.8c1,2.7,2.3,5,4,7c1.7,2,3.8,3.5,6.2,4.6
			c2.4,1.1,5.1,1.6,7.9,1.6s5.5-0.4,7.9-1.2c2.4-0.8,4.4-2,6.2-3.6c1.7-1.6,3.1-3.6,4-6c0.9-2.4,1.4-5.2,1.4-8.5c0-2.5,0-5.2,0-7.9
			c0-2.8,0-5.5,0-8.2c0-2.7,0-5.2,0-7.5c0-2.3,0-4.2,0-5.7c0-2.2,0.6-3.8,1.8-4.9c1.2-1.1,2.5-1.7,4.1-1.7c1.6,0,2.9,0.6,4.1,1.7
			c1.2,1.1,1.8,2.8,1.8,4.9C920.6,443.7,920.6,445.8,920.6,447.7z M913.7,415.9c-0.7,2.1-1.7,3.9-2.9,5.5c-1.3,1.6-2.8,2.8-4.5,3.6
			c-1.7,0.9-3.7,1.3-5.9,1.3c-2.9,0-5.4-0.7-7.2-2.2c-1.9-1.5-3.5-3.2-5-5.2c-0.5-0.8-1-1.5-1.5-2c-0.5-0.6-0.9-1-1.4-1.4
			c-0.4-0.3-0.9-0.5-1.3-0.5c-0.4,0-0.8,0.2-1.1,0.7c-0.3,0.5-0.5,1.2-0.6,2.3c-0.1,1-0.2,2.4-0.3,4.2c-0.1,1.7-0.7,3-1.9,3.9
			c-1.2,0.9-2.5,1.3-4,1.2c-1.5-0.1-2.9-0.7-4-1.8c-1.2-1.1-1.8-2.8-1.8-4.9c0-2.5,0.3-4.8,1-6.9c0.7-2.1,1.6-3.9,2.9-5.4
			c1.3-1.5,2.8-2.7,4.5-3.6c1.7-0.9,3.6-1.3,5.7-1.3c2.9,0,5.2,0.7,7.1,2.1c1.9,1.4,3.4,2.9,4.5,4.4c0.4,0.5,0.9,1.1,1.3,1.6
			c0.4,0.6,0.8,1.1,1.2,1.6c0.4,0.5,0.8,0.9,1.2,1.2c0.4,0.3,0.8,0.5,1.1,0.5c0.5,0,0.9-0.2,1.2-0.6c0.3-0.4,0.5-1.1,0.7-2
			c0.2-1,0.3-2.2,0.3-3.8c0-2,0.6-3.5,1.8-4.4c1.2-1,2.5-1.4,4.1-1.4c1.6,0,2.9,0.6,4.1,1.7c1.2,1.1,1.8,2.8,1.8,5
			C914.8,411.6,914.4,413.9,913.7,415.9z"/>
		<path class="st0" d="M1011.8,489.2c0-2,0-4.1,0-6.1c0-2,0-3.9,0-5.7c0-2.1,0-4.4,0-7c0-2.6,0-5.4,0-8.4c0-3.6-0.6-6.7-1.8-9
			c-1.2-2.4-2.9-4.2-5.1-5.4c-2.3-1.2-5-1.8-8.3-1.8c-2.9,0-5.5,0.5-7.8,1.4c-2.3,0.9-4.4,2.2-6,4c-1.7,1.7-3,3.9-4,6.5
			c-1,2.6-1.4,5.6-1.4,9c0,1.5,0,3.4,0,5.8c0,2.4,0,4.9,0,7.6c0,2.7,0,5.4,0,8c0,2.6,0,5,0,7c0,1.7-0.4,3.1-1.2,4.2
			s-1.8,1.8-2.9,2.1c-1.2,0.3-2.3,0.3-3.5,0c-1.2-0.3-2.1-1.1-2.9-2.1s-1.2-2.5-1.2-4.2c0-1.6,0-3.9,0-6.7c0-2.8,0-5.9,0-9.2
			c0-3.3,0-6.6,0-9.8c0-3.2,0-5.9,0-8.3c0-2.3,0-3.9,0-4.8c0-1.7,0-3.5,0-5.2c0-1.7,0-3.5,0-5.2c0-1.7,0-3.5,0-5.2
			c0-2.2,0.6-3.8,1.8-4.9c1.2-1.1,2.5-1.7,4.1-1.7c1.6,0,2.9,0.6,4.1,1.7c1.2,1.1,1.8,2.8,1.8,4.9c0,1.9,0,3.7,0,5.3
			c0,1.6,0,3.3,0,4.9c0,1.6,0,3.4,0,5.3c0,0.5,0,1.9,0,4.2c0,2.3,0,5.1,0,8.3c0,3.3,0,6.6,0,10c0,3.4,0,6.6,0,9.5c0,2.9,0,5.1,0,6.7
			c0,1.7-0.4,3.1-1.2,4.2s-1.8,1.8-2.9,2.1c-1.2,0.3-2.3,0.3-3.5,0c-1.2-0.3-2.1-1.1-2.9-2.1s-1.2-2.5-1.2-4.2c0-2,0-4.1,0-6.3
			c0-2.2,0-4.5,0-6.8c0-2.3,0-4.7,0-7.1c0-2.4,0-4.7,0-6.8c0-4.4,0.8-8.7,2.4-12.7c1.6-4.1,3.8-7.7,6.7-10.9
			c2.9-3.2,6.2-5.7,10.1-7.5s8.1-2.7,12.6-2.7c3.7,0,7.2,0.6,10.3,1.8c3.2,1.2,5.9,3,8.3,5.4c2.3,2.4,4.2,5.3,5.5,8.8
			c1.3,3.5,2,7.5,2,12c0,2,0,4.3,0,6.8c0,2.6,0,5.4,0,8.5c0,2.2,0,4.2,0,6c0,1.9,0,3.7,0,5.5s0,3.8,0,6c0,2.2-0.6,3.8-1.8,4.9
			c-1.2,1.1-2.5,1.7-4.1,1.7c-1.6,0-2.9-0.6-4.1-1.7c-1.2-1.1-1.8-2.8-1.8-4.9C1011.8,493.2,1011.8,491.3,1011.8,489.2z"/>
		<path class="st0" d="M1098.4,447.7c0,1.9,0,3.9,0,6c0,2.1,0,4.6,0,7.3s0,6,0,9.7c0,4.9-0.8,9.3-2.3,13.1c-1.6,3.8-3.8,7-6.6,9.7
			c-2.8,2.6-6.1,4.7-9.9,6c-3.8,1.4-7.9,2.1-12.3,2.1s-8.5-0.8-12.4-2.5c-3.8-1.6-7.2-4-10-7c-2.9-3-5.1-6.6-6.6-10.7
			c-1.6-4.1-2.3-8.7-2.3-13.6c0-6.6,1.4-12.4,4.1-17.5c2.7-5.1,6.5-9,11.2-11.9c4.7-2.9,10-4.3,15.9-4.3c4.4,0,8.5,0.8,12.3,2.4
			c3.8,1.6,7.1,3.9,9.9,6.9c2.8,3,5,6.5,6.6,10.6c1.6,4.1,2.4,8.6,2.4,13.5c0,2,0,3.9,0,5.8c0,1.9,0,3.6,0,5.3c0,1.7,0,3.3,0,4.7
			c0,2.3,0,4.5,0,6.5c0,2,0,4.2,0,6.5c0,2.2-0.6,3.8-1.8,4.9c-1.2,1.1-2.5,1.7-4.1,1.7c-1.6,0-2.9-0.6-4.1-1.7
			c-1.2-1.1-1.8-2.8-1.8-4.9c0-1.4,0-2.8,0-4.3c0-1.5,0-2.9,0-4.4c0-1.4,0-2.9,0-4.4c0-1,0-2.4,0-4.5c0-2,0-4.1,0-6.2
			c0-2.1,0-3.8,0-5.1c0-4.2-0.8-8-2.5-11.3c-1.6-3.3-3.9-5.9-6.9-7.7c-2.9-1.8-6.3-2.7-10.1-2.7c-2.9,0-5.5,0.5-7.9,1.6
			c-2.4,1.1-4.5,2.6-6.2,4.6c-1.7,2-3,4.3-4,7c-1,2.7-1.4,5.6-1.4,8.8c0,3.2,0.5,6.2,1.4,8.8c1,2.7,2.3,5,4,7c1.7,2,3.8,3.5,6.2,4.6
			c2.4,1.1,5.1,1.6,7.9,1.6s5.5-0.4,7.9-1.2c2.4-0.8,4.4-2,6.2-3.6c1.7-1.6,3.1-3.6,4-6c0.9-2.4,1.4-5.2,1.4-8.5c0-2.5,0-5.2,0-7.9
			c0-2.8,0-5.5,0-8.2c0-2.7,0-5.2,0-7.5c0-2.3,0-4.2,0-5.7c0-2.2,0.6-3.8,1.8-4.9c1.2-1.1,2.5-1.7,4.1-1.7c1.6,0,2.9,0.6,4.1,1.7
			c1.2,1.1,1.8,2.8,1.8,4.9C1098.4,443.7,1098.4,445.8,1098.4,447.7z M1064.6,421.9c-1.1-1-2.2-1.9-3.3-2.8
			c-1.1-0.9-2.2-1.8-3.3-2.8c-1.1-1-2.1-1.9-3.2-2.7c-1.6-1.5-2.5-3-2.6-4.6c-0.1-1.6,0.4-3,1.4-4.1c1-1.1,2.3-1.8,3.9-2
			c1.6-0.2,3.2,0.4,4.9,1.9c1.1,1,2.3,1.9,3.4,2.9c1.1,1,2.2,1.9,3.3,2.8c1.1,0.9,2.2,1.8,3.3,2.7c1.1,0.9,2.1,1.8,3.2,2.8
			c1.7,1.4,2.6,2.9,2.7,4.6c0,1.6-0.4,3-1.4,4.2c-1,1.1-2.3,1.8-3.9,2c-1.6,0.2-3.2-0.4-4.9-1.8
			C1066.9,423.8,1065.7,422.9,1064.6,421.9z"/>
		<path class="st0" d="M1124.1,511c0.5-1,1-2.1,1.4-3.1c0.5-1,1-2.1,1.4-3.1c0.5-1,0.9-2,1.4-3.1c0.3-0.9,0.7-1.7,1-2.5
			c0.3-0.8,0.7-1.5,1-2.3c0.3-0.7,0.7-1.5,0.9-2.1c0.6-1.3,0.8-2.6,0.7-4c-0.2-1.3-0.6-2.8-1.3-4.4c-0.7-1.6-1.6-3.3-2.6-5.2
			c-1-1.9-2.1-4-3.3-6.4c-0.9-1.8-1.9-4-3.1-6.6c-1.2-2.6-2.5-5.3-3.8-8.2c-1.3-2.9-2.7-5.8-4.1-8.8c-1.4-2.9-2.7-5.7-3.9-8.3
			c-0.9-2-1-3.7-0.4-5.2c0.6-1.5,1.6-2.5,3-3.2c1.4-0.7,2.8-0.7,4.4-0.3c1.5,0.5,2.8,1.7,3.7,3.7c1.2,2.7,2.5,5.5,3.8,8.4
			c1.3,2.9,2.7,5.8,4,8.7c1.3,2.9,2.6,5.6,3.8,8.1c1.2,2.5,2.2,4.7,3.1,6.5c2.1,4.2,3.8,7.8,5.1,10.6c1.3,2.8,2.3,5.2,2.9,7.3
			c0.6,2,0.7,4,0.5,5.8c-0.2,1.8-0.8,3.9-1.9,6.2c-0.3,0.6-0.6,1.3-1,2.1c-0.4,0.8-0.8,1.6-1.1,2.5c-0.3,0.9-0.7,1.7-1,2.5
			c-0.4,1-0.9,2.1-1.3,3.1c-0.4,1-0.9,2.1-1.4,3.1c-0.5,1-0.9,2.1-1.4,3.1c-0.4,1-0.9,2-1.3,2.9c-0.8,1.6-1.8,2.7-2.9,3.3
			s-2.3,0.9-3.5,0.7c-1.2-0.2-2.2-0.7-3.1-1.5c-0.9-0.8-1.5-1.9-1.8-3.2c-0.3-1.3,0-2.7,0.7-4.3
			C1123.2,513.1,1123.6,512.1,1124.1,511z M1165.4,447.8c-0.7,1.6-1.5,3.3-2.2,4.9c-0.7,1.6-1.4,3.2-2.1,4.7
			c-0.7,1.5-1.2,2.8-1.8,3.9c-1.8,4.2-3.8,8.7-6,13.5c-2.2,4.9-4.3,9.5-6.3,13.9c-2,4.4-3.6,8.1-4.9,10.9c-0.3,0.8-0.7,1.6-1,2.4
			c-0.3,0.8-0.7,1.6-1.1,2.4s-0.8,1.6-1.1,2.5c-0.4,1-0.9,2.1-1.3,3.1c-0.4,1-0.9,2-1.3,3c-0.4,1-0.9,2-1.4,3c-0.5,1-0.9,2-1.4,2.9
			c-0.8,1.6-1.8,2.7-2.9,3.3s-2.3,0.9-3.5,0.7c-1.2-0.2-2.2-0.7-3.1-1.5c-0.9-0.8-1.5-1.9-1.8-3.2c-0.3-1.3,0-2.7,0.7-4.3
			c0.4-1,0.9-2,1.4-3c0.5-1,1-2.1,1.5-3.1c0.5-1,1-2.1,1.5-3.1c0.5-1,0.9-2,1.4-3c0.3-0.9,0.7-1.6,1-2.3c0.3-0.7,0.6-1.4,0.9-2.1
			c0.3-0.7,0.6-1.5,1-2.3c0.9-2,2-4.5,3.4-7.5c1.4-3,2.9-6.3,4.5-9.8c1.6-3.6,3.2-7.2,4.9-10.8c1.6-3.6,3.2-7.1,4.6-10.3
			c0.7-1.5,1.5-3.3,2.4-5.3c0.9-2.1,1.9-4.3,2.9-6.6c1-2.3,2-4.4,2.9-6.4c0.9-2,2.1-3.3,3.6-3.8c1.5-0.5,3-0.5,4.4,0.1
			c1.4,0.6,2.5,1.6,3.1,3.1c0.7,1.5,0.5,3.2-0.5,5.2C1166.8,444.6,1166.1,446.2,1165.4,447.8z"/>
	</g>
</g>
</svg>
