<?xml version="1.0" encoding="utf-8"?>
<!-- Generator: Adobe Illustrator 28.0.0, SVG Export Plug-In . SVG Version: 6.00 Build 0)  -->
<svg version="1.1" id="Layer_1" xmlns="http://www.w3.org/2000/svg" xmlns:xlink="http://www.w3.org/1999/xlink" x="0px" y="0px"
	 viewBox="0 0 1009.4 348" style="enable-background:new 0 0 1009.4 348;" xml:space="preserve">
<style type="text/css">
	.st0{fill:#FFFFFF;}
</style>
<path d="M1072.5,396.6H-63.1c-63.5,0-114.9-51.4-114.9-114.9V66.3c0-63.5,51.4-114.9,114.9-114.9h1135.7
	c63.5,0,114.9,51.4,114.9,114.9v215.5C1187.4,345.2,1136,396.6,1072.5,396.6z"/>
<g>
	<g>
		<path class="st0" d="M118.8,97.7c-8-1.7-15.6-2.6-22.9-2.6c-11.7,0.2-22.2,2.5-31.5,6.7c-9.3,4.3-17.1,10.2-23.5,17.8
			c-6.4,7.6-11.3,16.4-14.7,26.4c-3.4,10-5.1,20.8-5.1,32.3c0,11.7,1.6,22.6,4.8,32.7c3.2,10,7.8,18.9,13.9,26.6
			c6.1,7.7,13.7,13.7,22.7,17.9c9.1,4.3,19.4,6.4,30.9,6.4c10.5,0,18.9-0.7,25.5-2.1c6.5-1.4,11.4-3.2,14.7-5.4
			c3.3-2.2,5.3-4.5,5.9-6.9c1.7-4.9,2.6-10.5,2.6-16.6c0-6.2,0-12.8,0-19.8c0-4.1-0.3-7-0.8-8.8c-0.5-1.8-1.6-2.7-3-2.7
			c-7.9,0-15,0-21.4,0s-11.4,0-15,0c-5.3,0-9.4-1.4-12.2-4.3c-2.8-2.9-4.2-6.2-4.2-10.1s1.4-7.2,4.2-10.1c2.8-2.9,6.8-4.3,12.2-4.3
			c5.5,0,12,0,19.2,0c7.3,0,13.6,0,18.9,0c6.2,0,11.6,1.1,16.3,3.2c4.7,2.1,8.3,5.9,10.9,11.4s3.8,13,3.8,22.6c0,8.1,0,14.9,0,20.3
			s-0.3,10.4-0.8,14.7c-0.5,4.4-1.6,8.9-3,13.6c-1.5,4.1-4.2,8.1-8,12.2c-3.8,4.1-8.9,7.7-15.2,11c-6.3,3.3-13.7,6-22.1,8
			c-8.4,2-17.9,3-28.3,3c-15.6,0-29.6-2.9-42.1-8.6c-12.5-5.8-23.1-13.8-31.9-24C10.6,247.9,3.9,236-0.8,222.4
			c-4.7-13.6-7-28.2-7-44c0-20.7,4.3-39.5,12.8-56.3c8.5-16.9,20.5-30.3,36-40.3c15.5-10,33.8-15.2,54.9-15.4
			c5.8,0,11.8,0.4,18.2,1.3c6.4,0.9,13,2.2,19.7,4.2c6.7,1.9,13.6,4.3,20.6,7c5.1,2.1,8.4,5.1,9.8,8.8c1.4,3.7,1.3,7.4-0.2,10.9
			c-1.5,3.5-4.1,6.1-7.7,7.7c-3.6,1.6-7.9,1.4-12.8-0.5C135,102.1,126.8,99.4,118.8,97.7z"/>
		<path class="st0" d="M209.2,78.2c0-1.5,0-3,0-4.5c0-1.5,0-3.3,0-5.4c0-4.9,1.4-8.6,4.3-11c2.9-2.5,6.2-3.7,10.1-3.7
			c3.8,0,7.2,1.2,10.1,3.7c2.9,2.5,4.3,6.1,4.3,11c0,2.1,0,4,0,5.4c0,1.5,0,3,0,4.5c0,1.5,0,3.4,0,5.8c0,4.9-1.4,8.6-4.3,11
			c-2.9,2.5-6.2,3.7-10.1,3.7c-3.8,0-7.2-1.2-10.1-3.7c-2.9-2.5-4.3-6.1-4.3-11C209.2,81.6,209.2,79.7,209.2,78.2z M209.2,261
			c0-4.7,0-9.2,0-13.6c0-4.4,0-8.6,0-12.6c0-7.3,0-13.6,0-18.9c0-5.3,0-10.7,0-16c0-5.3,0-11.6,0-18.9c0-4.1,0-8.1,0-12.2
			c0-4.1,0-8.4,0-13c0-4.6,0-9.5,0-14.9c0-5.3,1.4-9.3,4.3-12c2.9-2.7,6.2-4,10.1-4c3.8,0,7.2,1.3,10.1,4c2.9,2.7,4.3,6.7,4.3,12
			c0,5.6,0,10.4,0,14.6s0,8.2,0,12.2c0,4,0,8.4,0,13.3c0,4.9,0,10.6,0,17.1c0,6.5,0,13,0,19.5c0,6.5,0,12.2,0,17.1
			c0,4.9,0,9.5,0,13.8c0,4.3,0,8.5,0,12.6s0,8.7,0,13.6c0,5.3-1.4,9.4-4.3,12.2c-2.9,2.8-6.2,4.2-10.1,4.2c-3.8,0-7.2-1.3-10.1-4
			s-4.3-6.8-4.3-12.3C209.2,270.3,209.2,265.7,209.2,261z"/>
		<path class="st0" d="M428.5,114.4c-2.8,7.5-7,14.2-12.8,20.2c-5.8,6-13.2,10.7-22.2,14.1c-9.1,3.4-19.8,5.1-32.2,5.1
			c-9.2,0-17.4,1.3-24.8,3.8s-13.6,6.2-18.7,11c-5.1,4.8-9,10.5-11.7,17.1c-2.7,6.6-4,14-4,22.1c0,10.5,2.1,19.8,6.4,28
			c4.3,8.2,10.2,14.7,17.9,19.4c7.7,4.7,16.5,7,26.6,7c10.2,0,19.2-2.3,26.9-7c7.7-4.7,13.7-11.1,17.9-19.4c4.3-8.2,6.4-17.6,6.4-28
			c0-4.9-0.4-9.4-1.3-13.4c-0.9-4.1-2.1-7.9-3.7-11.5c-1.6-3.6-3.8-7-6.6-10.2c-3.4-4.3-4.9-8.3-4.3-12.2c0.5-3.8,2.3-7,5.3-9.4
			c3-2.5,6.5-3.5,10.4-3.2c3.9,0.3,7.6,2.6,11,6.9c6,7.3,10.5,15.2,13.4,23.9c3,8.6,4.5,18.4,4.5,29.3c0,15.8-3.5,30-10.4,42.6
			c-6.9,12.6-16.4,22.5-28.5,29.8c-12.1,7.3-25.8,10.9-41.1,10.9c-15.2,0-28.8-3.6-40.8-10.9c-12.1-7.3-21.6-17.1-28.5-29.6
			c-6.9-12.5-10.4-26.7-10.4-42.7c0-11.7,2-22.6,6.1-32.7c4.1-10,9.9-18.8,17.6-26.4c7.7-7.6,17-13.4,27.9-17.6
			c10.9-4.2,23.1-6.2,36.5-6.2c7.5,0,13.9-0.8,19.2-2.4c5.3-1.6,9.8-3.9,13.3-6.9c3.5-3,6.1-6.5,7.7-10.6c1.6-4.1,2.4-8.4,2.4-13.1
			c0-5.5,1.4-9.7,4.2-12.3c2.8-2.7,6.1-4.1,9.9-4.2c3.8-0.1,7.3,1.2,10.2,3.8c3,2.7,4.5,6.7,4.5,12
			C432.7,99.2,431.3,106.9,428.5,114.4z M336.6,96.8c-2.8-2.3-5.5-4.6-8.2-6.9c-2.7-2.2-5.3-4.5-8-6.9c-2.7-2.3-5.3-4.6-7.8-6.7
			c-4.1-3.6-6.2-7.4-6.4-11.4c-0.2-3.9,0.9-7.3,3.4-10.1c2.5-2.8,5.7-4.4,9.6-5c3.9-0.5,7.9,1,12,4.6c2.8,2.4,5.5,4.7,8.3,7
			c2.8,2.4,5.5,4.6,8.2,6.9c2.7,2.2,5.3,4.5,8,6.7c2.7,2.2,5.3,4.5,7.8,6.9c4.3,3.4,6.5,7.2,6.6,11.2c0.1,4.1-1.1,7.5-3.5,10.2
			c-2.5,2.8-5.7,4.4-9.6,4.8c-4,0.4-8-1.1-12-4.5C342.2,101.4,339.4,99.1,336.6,96.8z"/>
		<path class="st0" d="M555,153.6c1.9,5.2,3.8,10.3,5.8,15.2c1.9,4.9,4.1,10.4,6.4,16.3c2.6,6.2,4.9,12.2,7,17.9
			c2.1,5.8,4.4,11.6,6.7,17.4c2.3,5.9,4.8,12.1,7.4,18.7c1.3,3,2.2,5.2,2.9,6.7c0.6,1.5,1.2,2.2,1.6,2.2c0.4,0,1-0.7,1.6-2.2
			c0.6-1.5,1.5-3.6,2.6-6.4c2.8-6.6,5.4-13,7.8-19.2c2.5-6.2,4.9-12.4,7.4-18.7c2.5-6.3,4.9-12.6,7.2-19c2.1-5.5,4.2-10.7,6.1-15.4
			c1.9-4.7,3.8-9.5,5.8-14.6c1.9-5,3.8-10.5,5.8-16.5c1.7-5.1,4.4-8.4,8-9.9c3.6-1.5,7.3-1.7,11-0.5c3.7,1.2,6.5,3.5,8.3,7
			c1.8,3.5,1.9,7.8,0.2,13c-2.1,6.2-4.2,11.8-6.2,16.8c-2,5-4,9.9-5.9,14.7c-1.9,4.8-4.1,10.2-6.4,16.2c-1.9,4.7-3.8,9.4-5.6,14.2
			c-1.8,4.8-3.8,10-6.1,15.5c-2.2,5.6-4.7,11.8-7.4,18.7c-2.7,6.9-5.7,14.9-9.1,23.9c-3.2,8.3-6.9,14.6-11,18.7
			c-4.2,4.2-8.5,6.3-13.1,6.4c-4.6,0.1-9-1.9-13.3-5.9c-4.3-4.1-8.1-10.2-11.5-18.6c-5.1-12-9.3-22-12.6-30.3
			c-3.3-8.2-6.1-15.4-8.5-21.6c-2.4-6.2-4.8-12.4-7.4-18.6c-2.4-6.2-4.5-11.8-6.4-16.8c-1.9-5-3.8-10.1-5.8-15.4
			c-1.9-5.2-4.2-11.2-6.7-17.8c-1.9-5.1-2-9.4-0.3-13c1.7-3.5,4.4-6,8-7.4c3.6-1.4,7.3-1.3,10.9,0.2c3.6,1.5,6.4,4.8,8.3,9.9
			C550.8,142.4,553,148.3,555,153.6z"/>
		<path class="st0" d="M837,158.2c0,4.7,0,9.7,0,14.9c0,5.2,0,11.2,0,17.9s0,14.7,0,23.9c0,12.2-1.9,22.9-5.8,32.3
			c-3.8,9.4-9.2,17.3-16.2,23.9c-6.9,6.5-15,11.5-24.3,14.9c-9.3,3.4-19.4,5.1-30.3,5.1s-21-2-30.4-6.1c-9.4-4.1-17.6-9.8-24.7-17.3
			c-7-7.5-12.5-16.3-16.3-26.4c-3.8-10.1-5.8-21.3-5.8-33.5c0-16.2,3.4-30.6,10.1-43.1s15.9-22.2,27.5-29.3
			c11.6-7,24.7-10.6,39.2-10.6c10.9,0,21,2,30.3,5.9c9.3,4,17.4,9.6,24.3,17c6.9,7.4,12.4,16.1,16.3,26.1c3.9,10,5.9,21.1,5.9,33.3
			c0,4.9,0,9.7,0,14.2c0,4.6,0,9,0,13.1c0,4.2,0,8.1,0,11.7c0,5.8,0,11.1,0,16c0,4.9,0,10.2,0,16c0,5.3-1.4,9.4-4.3,12.2
			c-2.9,2.8-6.2,4.2-10.1,4.2s-7.2-1.4-10.1-4.2c-2.9-2.8-4.3-6.8-4.3-12.2c0-3.4,0-6.9,0-10.6c0-3.6,0-7.2,0-10.7s0-7.1,0-10.7
			c0-2.3,0-6,0-11c0-5,0-10.1,0-15.4c0-5.2,0-9.4,0-12.6c0-10.5-2-19.7-6.1-27.9c-4.1-8.1-9.7-14.4-17-18.9
			c-7.3-4.5-15.6-6.7-25-6.7c-7,0-13.6,1.3-19.5,4c-6,2.7-11,6.4-15.2,11.2c-4.2,4.8-7.4,10.5-9.8,17.1c-2.4,6.6-3.5,13.9-3.5,21.8
			c0,7.9,1.2,15.2,3.5,21.8c2.3,6.6,5.7,12.4,9.9,17.3c4.3,4.9,9.4,8.7,15.4,11.4c6,2.7,12.5,4,19.5,4s13.5-1,19.4-2.9
			c5.9-1.9,10.9-4.9,15.2-8.8c4.3-3.9,7.5-8.9,9.8-14.9c2.2-6,3.4-12.9,3.4-20.8c0-6.2,0-12.7,0-19.5c0-6.8,0-13.6,0-20.2
			c0-6.6,0-12.8,0-18.4c0-5.7,0-10.3,0-13.9c0-5.3,1.4-9.4,4.3-12.2c2.9-2.8,6.2-4.2,10.1-4.2s7.2,1.4,10.1,4.2
			c2.9,2.8,4.3,6.8,4.3,12.2C837,148.4,837,153.5,837,158.2z M753.8,94.8c-2.8-2.3-5.5-4.6-8.2-6.9c-2.7-2.2-5.3-4.5-8-6.9
			c-2.7-2.3-5.3-4.6-7.8-6.7c-4.1-3.6-6.2-7.4-6.4-11.4c-0.2-3.9,0.9-7.3,3.4-10.1c2.5-2.8,5.7-4.4,9.6-5c3.9-0.5,7.9,1,12,4.6
			c2.8,2.4,5.5,4.7,8.3,7c2.8,2.4,5.5,4.6,8.2,6.9c2.7,2.2,5.3,4.5,8,6.7c2.7,2.2,5.3,4.5,7.8,6.9c4.3,3.4,6.5,7.2,6.6,11.2
			c0.1,4.1-1.1,7.5-3.5,10.2c-2.5,2.8-5.7,4.4-9.6,4.8c-4,0.4-8-1.1-12-4.5C759.3,99.5,756.5,97.2,753.8,94.8z"/>
		<path class="st0" d="M902.5,275.9c-6.7-4.8-12.6-11-17.8-18.7c-4.5-6.6-8-14.1-10.6-22.4c-2.6-8.3-3.8-17.3-3.8-26.9
			c0-16,3.5-30.3,10.4-42.7c6.9-12.5,16.4-22.3,28.5-29.5c12.1-7.1,25.7-10.7,40.8-10.7c15.4,0,29.1,3.6,41.1,10.7
			c12.1,7.2,21.6,17,28.5,29.5c6.9,12.5,10.4,26.7,10.4,42.7c0,9.4-1.2,18.2-3.7,26.4c-2.5,8.2-6,15.7-10.7,22.6
			c-5.1,7.9-11,14.2-17.6,18.9c-6.6,4.7-14.7,8.8-24.3,12.2c-4.9,1.7-9.1,1.6-12.6-0.3s-5.9-4.7-7.2-8.3c-1.3-3.6-1.1-7.2,0.6-10.7
			c1.7-3.5,5.1-6.2,10.2-8.2c6.4-2.1,11.6-4.6,15.7-7.5c4.1-2.9,7.9-6.9,11.5-12c3-4.5,5.3-9.5,6.9-15c1.6-5.5,2.4-11.5,2.4-17.9
			c0-10.5-2.2-19.8-6.6-28c-4.4-8.2-10.4-14.6-18.1-19.2c-7.7-4.6-16.5-6.9-26.6-6.9c-10,0-18.9,2.3-26.6,6.9
			c-7.7,4.6-13.7,11-17.9,19.2c-4.3,8.2-6.4,17.6-6.4,28c0,6.4,0.8,12.4,2.4,18.1c1.6,5.7,3.9,10.7,6.9,15.2
			c2.3,3.4,4.9,6.3,7.5,8.6c2.7,2.4,5.6,4.4,8.8,6.1c3.2,1.7,6.7,3.2,10.6,4.5c5.1,1.9,8.5,4.6,10.2,8.2c1.7,3.5,1.9,7.1,0.6,10.7
			c-1.3,3.6-3.7,6.4-7.2,8.3c-3.5,1.9-7.8,2-13,0.3C917,284.7,909.2,280.7,902.5,275.9z"/>
	</g>
</g>
<polyline points="10.3,9 163.1,-143.7 315.8,9 "/>
</svg>
