<?xml version="1.0" encoding="utf-8"?>
<!-- Generator: Adobe Illustrator 28.0.0, SVG Export Plug-In . SVG Version: 6.00 Build 0)  -->
<svg version="1.1" id="Layer_1" xmlns="http://www.w3.org/2000/svg" xmlns:xlink="http://www.w3.org/1999/xlink" x="0px" y="0px"
	 viewBox="0 0 1366 768" style="enable-background:new 0 0 1366 768;" xml:space="preserve">
<style type="text/css">
	.st0{fill:#FFFFFF;}
</style>
<path d="M1250.8,606.6H115.2c-63.5,0-114.9-51.4-114.9-114.9V276.3c0-63.5,51.4-114.9,114.9-114.9h1135.7
	c63.5,0,114.9,51.4,114.9,114.9v215.5C1365.7,555.2,1314.3,606.6,1250.8,606.6z"/>
<polyline points="188.6,219 341.4,66.3 494.1,219 "/>
<g>
	<g>
		<path class="st0" d="M400,317.4c-8-1.7-15.6-2.6-22.9-2.6c-11.7,0.2-22.2,2.5-31.5,6.7c-9.3,4.3-17.1,10.2-23.5,17.8
			c-6.4,7.6-11.3,16.4-14.7,26.4c-3.4,10-5.1,20.8-5.1,32.3c0,11.7,1.6,22.6,4.8,32.7c3.2,10,7.8,18.9,13.9,26.6
			s13.7,13.7,22.7,17.9c9.1,4.3,19.4,6.4,30.9,6.4c10.5,0,18.9-0.7,25.5-2.1c6.5-1.4,11.4-3.2,14.7-5.4c3.3-2.2,5.3-4.5,5.9-6.9
			c1.7-4.9,2.6-10.5,2.6-16.6c0-6.2,0-12.8,0-19.8c0-4.1-0.3-7-0.8-8.8c-0.5-1.8-1.6-2.7-3-2.7c-7.9,0-15,0-21.4,0
			c-6.4,0-11.4,0-15,0c-5.3,0-9.4-1.4-12.2-4.3c-2.8-2.9-4.2-6.2-4.2-10.1s1.4-7.2,4.2-10.1c2.8-2.9,6.8-4.3,12.2-4.3
			c5.5,0,12,0,19.2,0c7.3,0,13.6,0,18.9,0c6.2,0,11.6,1.1,16.3,3.2c4.7,2.1,8.3,5.9,10.9,11.4c2.6,5.4,3.8,13,3.8,22.6
			c0,8.1,0,14.9,0,20.3s-0.3,10.4-0.8,14.7c-0.5,4.4-1.6,8.9-3,13.6c-1.5,4.1-4.2,8.1-8,12.2c-3.8,4.1-8.9,7.7-15.2,11
			c-6.3,3.3-13.7,6-22.1,8c-8.4,2-17.9,3-28.3,3c-15.6,0-29.6-2.9-42.1-8.6s-23.1-13.8-31.9-24c-8.8-10.2-15.5-22.1-20.2-35.7
			c-4.7-13.6-7-28.2-7-44c0-20.7,4.3-39.5,12.8-56.3c8.5-16.9,20.5-30.3,36-40.3c15.5-10,33.8-15.2,54.9-15.4
			c5.8,0,11.8,0.4,18.2,1.3c6.4,0.9,13,2.2,19.7,4.2c6.7,1.9,13.6,4.3,20.6,7c5.1,2.1,8.4,5.1,9.8,8.8c1.4,3.7,1.3,7.4-0.2,10.9
			c-1.5,3.5-4.1,6.1-7.7,7.7c-3.6,1.6-7.9,1.4-12.8-0.5C416.3,321.8,408,319.1,400,317.4z"/>
		<path class="st0" d="M490.4,297.9c0-1.5,0-3,0-4.5c0-1.5,0-3.3,0-5.4c0-4.9,1.4-8.6,4.3-11c2.9-2.5,6.2-3.7,10.1-3.7
			c3.8,0,7.2,1.2,10.1,3.7c2.9,2.5,4.3,6.1,4.3,11c0,2.1,0,4,0,5.4c0,1.5,0,3,0,4.5c0,1.5,0,3.4,0,5.8c0,4.9-1.4,8.6-4.3,11
			c-2.9,2.5-6.2,3.7-10.1,3.7c-3.8,0-7.2-1.2-10.1-3.7c-2.9-2.5-4.3-6.1-4.3-11C490.4,301.3,490.4,299.4,490.4,297.9z M490.4,480.7
			c0-4.7,0-9.2,0-13.6c0-4.4,0-8.6,0-12.6c0-7.3,0-13.6,0-18.9c0-5.3,0-10.7,0-16c0-5.3,0-11.6,0-18.9c0-4.1,0-8.1,0-12.2
			c0-4.1,0-8.4,0-13c0-4.6,0-9.5,0-14.9c0-5.3,1.4-9.3,4.3-12c2.9-2.7,6.2-4,10.1-4c3.8,0,7.2,1.3,10.1,4c2.9,2.7,4.3,6.7,4.3,12
			c0,5.6,0,10.4,0,14.6c0,4.2,0,8.2,0,12.2c0,4,0,8.4,0,13.3c0,4.9,0,10.6,0,17.1c0,6.5,0,13,0,19.5c0,6.5,0,12.2,0,17.1
			c0,4.9,0,9.5,0,13.8c0,4.3,0,8.5,0,12.6s0,8.7,0,13.6c0,5.3-1.4,9.4-4.3,12.2c-2.9,2.8-6.2,4.2-10.1,4.2c-3.8,0-7.2-1.3-10.1-4
			c-2.9-2.7-4.3-6.8-4.3-12.3C490.4,489.9,490.4,485.4,490.4,480.7z"/>
		<path class="st0" d="M709.7,334c-2.8,7.5-7,14.2-12.8,20.2c-5.8,6-13.2,10.7-22.2,14.1c-9.1,3.4-19.8,5.1-32.2,5.1
			c-9.2,0-17.4,1.3-24.8,3.8c-7.4,2.6-13.6,6.2-18.7,11c-5.1,4.8-9,10.5-11.7,17.1c-2.7,6.6-4,14-4,22.1c0,10.5,2.1,19.8,6.4,28
			c4.3,8.2,10.2,14.7,17.9,19.4c7.7,4.7,16.5,7,26.6,7c10.2,0,19.2-2.3,26.9-7c7.7-4.7,13.7-11.1,17.9-19.4c4.3-8.2,6.4-17.6,6.4-28
			c0-4.9-0.4-9.4-1.3-13.4c-0.9-4.1-2.1-7.9-3.7-11.5c-1.6-3.6-3.8-7-6.6-10.2c-3.4-4.3-4.9-8.3-4.3-12.2c0.5-3.8,2.3-7,5.3-9.4
			c3-2.5,6.5-3.5,10.4-3.2c3.9,0.3,7.6,2.6,11,6.9c6,7.3,10.5,15.2,13.4,23.9c3,8.6,4.5,18.4,4.5,29.3c0,15.8-3.5,30-10.4,42.6
			c-6.9,12.6-16.4,22.5-28.5,29.8c-12.1,7.3-25.8,10.9-41.1,10.9c-15.2,0-28.8-3.6-40.8-10.9c-12.1-7.3-21.6-17.1-28.5-29.6
			c-6.9-12.5-10.4-26.7-10.4-42.7c0-11.7,2-22.6,6.1-32.7c4.1-10,9.9-18.8,17.6-26.4c7.7-7.6,17-13.4,27.9-17.6
			c10.9-4.2,23.1-6.2,36.5-6.2c7.5,0,13.9-0.8,19.2-2.4c5.3-1.6,9.8-3.9,13.3-6.9c3.5-3,6.1-6.5,7.7-10.6c1.6-4.1,2.4-8.4,2.4-13.1
			c0-5.5,1.4-9.7,4.2-12.3c2.8-2.7,6.1-4.1,9.9-4.2c3.8-0.1,7.3,1.2,10.2,3.8c3,2.7,4.5,6.7,4.5,12
			C713.9,318.9,712.5,326.6,709.7,334z M617.9,316.4c-2.8-2.3-5.5-4.6-8.2-6.9c-2.7-2.2-5.3-4.5-8-6.9c-2.7-2.3-5.3-4.6-7.8-6.7
			c-4.1-3.6-6.2-7.4-6.4-11.4c-0.2-3.9,0.9-7.3,3.4-10.1c2.5-2.8,5.7-4.4,9.6-5c3.9-0.5,7.9,1,12,4.6c2.8,2.4,5.5,4.7,8.3,7
			c2.8,2.4,5.5,4.6,8.2,6.9c2.7,2.2,5.3,4.5,8,6.7c2.7,2.2,5.3,4.5,7.8,6.9c4.3,3.4,6.5,7.2,6.6,11.2c0.1,4.1-1.1,7.5-3.5,10.2
			c-2.5,2.8-5.7,4.4-9.6,4.8c-4,0.4-8-1.1-12-4.5C623.4,321.1,620.6,318.8,617.9,316.4z"/>
		<path class="st0" d="M874,376.5c-6.8,2-12.3,5.3-16.5,9.9c-4.2,4.6-7.2,10.1-9.1,16.5c-1.9,6.4-2.9,13.3-2.9,20.8
			c0,4.9,0,10.6,0,17c0,6.4,0,12.9,0,19.5c0,6.6,0,12.9,0,18.9c0,6,0,11.1,0,15.4c0,4.3-1,7.7-2.9,10.2c-1.9,2.6-4.3,4.3-7.2,5.3
			c-2.9,1-5.8,1-8.6,0.2c-2.9-0.9-5.3-2.6-7.2-5.3s-2.9-6.1-2.9-10.4c0-4.5,0-10.1,0-16.8c0-6.7,0-13.8,0-21.1s0-14.4,0-21
			c0-6.6,0-12,0-16c0-6,0-12.3,0-18.9c0-6.6,0-13.3,0-20s0-13,0-18.7c0-5.5,1.4-9.7,4.3-12.3c2.9-2.7,6.2-4,10.1-4s7.2,1.4,10.1,4.2
			c2.9,2.8,4.3,6.8,4.3,12.2c0,7,0,13.6,0,19.7c0,6.1,0,12.2,0,18.2s0,12.6,0,19.7c0,2.8,0,7.4,0,13.8c0,6.4,0,13.6,0,21.4
			c0,7.9,0,15.4,0,22.6c0,7.2,0,12.9,0,17.1c0,4.3-1,7.7-2.9,10.2c-1.9,2.6-4.3,4.3-7.2,5.3c-2.9,1-5.8,1-8.6,0.2
			c-2.9-0.9-5.3-2.6-7.2-5.3s-2.9-6.1-2.9-10.4c0-6,0-13.2,0-21.8c0-8.5,0-16.8,0-24.7c0-7.9,0-13.9,0-17.9c0-9.2,1.1-18.1,3.4-26.9
			c2.2-8.7,5.6-16.9,10.1-24.3c4.5-7.5,10.1-13.9,17-19.2c6.8-5.3,14.9-9.2,24.2-11.5c9.3-2.3,19.8-2.8,31.5-1.3
			c5.3,0.9,9.2,2.9,11.5,6.1c2.3,3.2,3.3,6.7,2.7,10.6c-0.5,3.8-2.4,7-5.4,9.4c-3.1,2.5-7.3,3.4-12.6,2.7
			C889.1,374.2,880.8,374.4,874,376.5z"/>
		<path class="st0" d="M1086.2,377.9c0,4.7,0,9.7,0,14.9c0,5.2,0,11.2,0,17.9s0,14.7,0,23.9c0,12.2-1.9,22.9-5.8,32.3
			c-3.8,9.4-9.2,17.3-16.2,23.9c-6.9,6.5-15,11.5-24.3,14.9c-9.3,3.4-19.4,5.1-30.3,5.1s-21-2-30.4-6.1c-9.4-4.1-17.6-9.8-24.7-17.3
			c-7-7.5-12.5-16.3-16.3-26.4c-3.8-10.1-5.8-21.3-5.8-33.5c0-16.2,3.4-30.6,10.1-43.1c6.7-12.5,15.9-22.2,27.5-29.3
			c11.6-7,24.7-10.6,39.2-10.6c10.9,0,21,2,30.3,5.9c9.3,4,17.4,9.6,24.3,17c6.9,7.4,12.4,16.1,16.3,26.1c3.9,10,5.9,21.1,5.9,33.3
			c0,4.9,0,9.7,0,14.2c0,4.6,0,9,0,13.1c0,4.2,0,8.1,0,11.7c0,5.8,0,11.1,0,16c0,4.9,0,10.2,0,16c0,5.3-1.4,9.4-4.3,12.2
			c-2.9,2.8-6.2,4.2-10.1,4.2s-7.2-1.4-10.1-4.2c-2.9-2.8-4.3-6.8-4.3-12.2c0-3.4,0-6.9,0-10.6c0-3.6,0-7.2,0-10.7s0-7.1,0-10.7
			c0-2.3,0-6,0-11c0-5,0-10.1,0-15.4c0-5.2,0-9.4,0-12.6c0-10.5-2-19.7-6.1-27.9c-4.1-8.1-9.7-14.4-17-18.9
			c-7.3-4.5-15.6-6.7-25-6.7c-7,0-13.6,1.3-19.5,4c-6,2.7-11,6.4-15.2,11.2c-4.2,4.8-7.4,10.5-9.8,17.1c-2.4,6.6-3.5,13.9-3.5,21.8
			c0,7.9,1.2,15.2,3.5,21.8c2.3,6.6,5.7,12.4,9.9,17.3c4.3,4.9,9.4,8.7,15.4,11.4c6,2.7,12.5,4,19.5,4c7,0,13.5-1,19.4-2.9
			c5.9-1.9,10.9-4.9,15.2-8.8c4.3-3.9,7.5-8.9,9.8-14.9c2.2-6,3.4-12.9,3.4-20.8c0-6.2,0-12.7,0-19.5c0-6.8,0-13.6,0-20.2
			c0-6.6,0-12.8,0-18.4c0-5.7,0-10.3,0-13.9c0-5.3,1.4-9.4,4.3-12.2c2.9-2.8,6.2-4.2,10.1-4.2s7.2,1.4,10.1,4.2
			c2.9,2.8,4.3,6.8,4.3,12.2C1086.2,368.1,1086.2,373.2,1086.2,377.9z"/>
	</g>
</g>
</svg>
